<svg width="1280" height="720" viewBox="0 0 1280 720" fill="none" xmlns="http://www.w3.org/2000/svg">
<g clip-path="url(#clip0_144_205)">
<path d="M1276 4H4V716H1276V4Z" fill="white"/>
<path d="M1272 8V712H8V8H1272ZM1280 0H0V720H1280V0Z" fill="black"/>
<path d="M100.639 289.88V319.04H116.719V312C116.719 310.2 117.079 308.92 117.759 308.16C118.439 307.4 119.359 307 120.479 307C121.599 307 122.479 307.36 123.159 308.16C123.839 308.92 124.199 310.2 124.199 312V326.52H88.8789C87.0789 326.52 85.7989 326.16 85.0389 325.48C84.2789 324.8 83.8789 323.88 83.8789 322.76C83.8789 321.64 84.2789 320.76 85.0389 320.08C85.7989 319.4 87.0789 319.04 88.8789 319.04H93.1989V289.88H88.8789C87.0789 289.88 85.7989 289.52 85.0389 288.84C84.2789 288.16 83.8789 287.24 83.8789 286.12C83.8789 285 84.2789 284.12 85.0389 283.4C85.7989 282.72 87.0789 282.36 88.8789 282.36H105.039C106.839 282.36 108.119 282.72 108.879 283.4C109.639 284.08 110.039 284.96 110.039 286.08C110.039 287.2 109.679 288.08 108.879 288.8C108.119 289.48 106.839 289.84 105.039 289.84H100.679L100.639 289.88Z" fill="black"/>
<path d="M155.16 326.52V324.76C153.28 325.76 151.24 326.48 149 327C146.76 327.48 144.68 327.76 142.84 327.76C138.84 327.76 135.6 326.72 133.08 324.6C130.56 322.48 129.32 320.12 129.32 317.56C129.32 314.44 130.92 311.52 134.12 308.84C137.32 306.16 141.72 304.84 147.32 304.84C149.56 304.84 152.16 305.08 155.12 305.56V303.76C155.12 302.64 154.64 301.72 153.68 301.04C152.72 300.36 150.88 300 148.2 300C146 300 143.12 300.44 139.64 301.32C138.32 301.64 137.32 301.8 136.6 301.8C135.6 301.8 134.76 301.44 134.08 300.72C133.4 300 133.04 299.08 133.04 297.96C133.04 297.32 133.16 296.8 133.4 296.32C133.64 295.84 134 295.48 134.4 295.2C134.84 294.92 135.76 294.6 137.12 294.2C138.96 293.68 140.84 293.28 142.76 293C144.68 292.72 146.4 292.56 147.96 292.56C152.6 292.56 156.2 293.56 158.76 295.56C161.32 297.56 162.6 300.28 162.6 303.76V319.12H163.88C165.68 319.12 166.96 319.48 167.72 320.16C168.48 320.84 168.88 321.76 168.88 322.88C168.88 324 168.48 324.88 167.72 325.56C166.96 326.24 165.68 326.6 163.88 326.6H155.16V326.52ZM155.16 313.16C152.16 312.56 149.44 312.28 146.92 312.28C143.88 312.28 141.28 313.04 139.12 314.48C137.76 315.44 137.08 316.4 137.08 317.36C137.08 318.08 137.4 318.64 138.08 319.08C139.28 319.88 140.96 320.28 143.08 320.28C144.88 320.28 146.92 319.92 149.16 319.24C151.4 318.56 153.44 317.56 155.2 316.36V313.16H155.16Z" fill="black"/>
<path d="M201.201 302.2C200.001 301.44 198.721 300.88 197.401 300.52C196.081 300.16 194.681 299.96 193.241 299.96C190.361 299.96 188.081 300.44 186.361 301.36C185.601 301.76 185.241 302.2 185.241 302.72C185.241 303.28 185.761 303.84 186.761 304.36C187.521 304.76 189.281 305.12 191.961 305.48C196.921 306.16 200.361 306.84 202.281 307.52C204.841 308.4 206.801 309.76 208.161 311.52C209.561 313.28 210.241 315.16 210.241 317.12C210.241 319.8 209.081 322 206.721 323.8C203.361 326.4 198.961 327.68 193.601 327.68C191.441 327.68 189.441 327.48 187.601 327.12C185.761 326.76 184.081 326.2 182.561 325.48C182.201 325.8 181.801 326.04 181.401 326.2C181.001 326.36 180.561 326.44 180.121 326.44C178.961 326.44 178.041 326.08 177.321 325.28C176.641 324.52 176.281 323.24 176.281 321.44V318.92C176.281 317.12 176.641 315.84 177.321 315.08C178.001 314.32 178.921 313.92 180.041 313.92C180.921 313.92 181.681 314.16 182.281 314.68C182.881 315.16 183.361 316.04 183.681 317.24C184.841 318.2 186.201 318.96 187.801 319.44C189.401 319.92 191.241 320.2 193.321 320.2C196.721 320.2 199.401 319.68 201.281 318.6C202.161 318.08 202.641 317.52 202.641 316.92C202.641 315.96 202.001 315.16 200.721 314.52C199.441 313.88 196.801 313.36 192.761 312.92C186.761 312.28 182.761 311.08 180.761 309.28C178.761 307.52 177.761 305.32 177.761 302.72C177.761 300.12 178.881 297.84 181.121 296.08C184.161 293.64 188.161 292.44 193.121 292.44C194.841 292.44 196.481 292.6 198.081 292.92C199.681 293.24 201.201 293.76 202.641 294.44C203.121 294.12 203.521 293.84 203.921 293.68C204.321 293.52 204.681 293.44 205.041 293.44C206.041 293.44 206.921 293.84 207.601 294.6C208.281 295.36 208.601 296.64 208.601 298.44V300.28C208.601 301.92 208.401 303 208.001 303.6C207.241 304.72 206.161 305.28 204.841 305.28C203.961 305.28 203.161 305 202.481 304.44C201.801 303.88 201.361 303.16 201.161 302.24L201.201 302.2Z" fill="black"/>
<path d="M273.12 279.36V296.08C274.92 294.88 276.8 294 278.68 293.4C280.56 292.8 282.44 292.52 284.36 292.52C289.52 292.52 293.88 294.32 297.48 297.88C301.08 301.44 302.88 305.76 302.88 310.8C302.88 315.84 301.16 319.64 297.76 322.88C294.36 326.12 289.84 327.72 284.24 327.72C282.24 327.72 280.32 327.48 278.48 326.96C276.64 326.44 274.84 325.72 273.12 324.72V326.56H264.4C262.6 326.56 261.32 326.2 260.56 325.52C259.8 324.84 259.4 323.92 259.4 322.8C259.4 321.68 259.8 320.8 260.56 320.12C261.32 319.44 262.6 319.08 264.36 319.08H265.64V286.84H264.36C262.56 286.84 261.28 286.48 260.52 285.8C259.76 285.12 259.36 284.2 259.36 283.08C259.36 281.96 259.76 281.08 260.52 280.4C261.28 279.72 262.56 279.36 264.36 279.36H273.08H273.12ZM295.4 311C295.4 307.92 294.32 305.32 292.16 303.2C290 301.08 287.36 300 284.24 300C281.12 300 278.52 301.08 276.36 303.2C274.2 305.32 273.12 307.92 273.12 310.92C273.12 313.68 274.08 315.92 276.04 317.68C277.96 319.44 280.72 320.32 284.24 320.32C287.76 320.32 290.52 319.44 292.48 317.68C294.44 315.92 295.4 313.72 295.4 311.04V311Z" fill="black"/>
<path d="M333.918 326.52V324.76C332.038 325.76 329.998 326.48 327.758 327C325.518 327.48 323.438 327.76 321.598 327.76C317.598 327.76 314.358 326.72 311.838 324.6C309.318 322.48 308.078 320.12 308.078 317.56C308.078 314.44 309.678 311.52 312.878 308.84C316.078 306.16 320.478 304.84 326.078 304.84C328.318 304.84 330.918 305.08 333.878 305.56V303.76C333.878 302.64 333.398 301.72 332.438 301.04C331.478 300.36 329.638 300 326.958 300C324.758 300 321.878 300.44 318.398 301.32C317.078 301.64 316.078 301.8 315.358 301.8C314.358 301.8 313.518 301.44 312.838 300.72C312.158 300 311.798 299.08 311.798 297.96C311.798 297.32 311.918 296.8 312.158 296.32C312.398 295.84 312.758 295.48 313.158 295.2C313.598 294.92 314.518 294.6 315.878 294.2C317.718 293.68 319.598 293.28 321.518 293C323.438 292.72 325.158 292.56 326.718 292.56C331.358 292.56 334.958 293.56 337.518 295.56C340.078 297.56 341.358 300.28 341.358 303.76V319.12H342.638C344.438 319.12 345.718 319.48 346.478 320.16C347.238 320.84 347.638 321.76 347.638 322.88C347.638 324 347.238 324.88 346.478 325.56C345.718 326.24 344.438 326.6 342.638 326.6H333.918V326.52ZM333.918 313.16C330.918 312.56 328.198 312.28 325.678 312.28C322.638 312.28 320.038 313.04 317.878 314.48C316.518 315.44 315.838 316.4 315.838 317.36C315.838 318.08 316.158 318.64 316.838 319.08C318.038 319.88 319.718 320.28 321.838 320.28C323.638 320.28 325.678 319.92 327.918 319.24C330.158 318.56 332.198 317.56 333.958 316.36V313.16H333.918Z" fill="black"/>
<path d="M370.04 300.96V315.92C370.04 317.52 370.36 318.56 371.04 319.08C372.04 319.88 373.88 320.28 376.48 320.28C380.28 320.28 383.8 319.48 387.04 317.84C388.28 317.2 389.24 316.88 389.96 316.88C390.92 316.88 391.76 317.24 392.48 317.96C393.2 318.68 393.56 319.56 393.56 320.6C393.56 321.56 393.16 322.4 392.4 323.12C391.2 324.28 388.88 325.32 385.36 326.28C381.84 327.24 378.92 327.72 376.52 327.72C371.88 327.72 368.4 326.72 366.12 324.72C363.8 322.72 362.64 320.28 362.64 317.36V300.96H359.96C358.16 300.96 356.88 300.6 356.12 299.92C355.36 299.24 354.96 298.32 354.96 297.2C354.96 296.08 355.36 295.2 356.12 294.52C356.88 293.84 358.16 293.48 359.96 293.48H362.64V286.76C362.64 284.96 363 283.68 363.68 282.92C364.36 282.16 365.28 281.76 366.4 281.76C367.52 281.76 368.4 282.12 369.08 282.92C369.76 283.68 370.12 284.96 370.12 286.76V293.48H383.88C385.68 293.48 386.96 293.84 387.72 294.52C388.48 295.2 388.88 296.12 388.88 297.24C388.88 298.36 388.48 299.24 387.72 299.92C386.96 300.6 385.68 300.96 383.88 300.96H370.12H370.04Z" fill="black"/>
<path d="M423.281 326.52V324.76C421.401 325.76 419.361 326.48 417.121 327C414.881 327.48 412.801 327.76 410.961 327.76C406.961 327.76 403.721 326.72 401.201 324.6C398.681 322.48 397.441 320.12 397.441 317.56C397.441 314.44 399.041 311.52 402.241 308.84C405.441 306.16 409.841 304.84 415.441 304.84C417.681 304.84 420.281 305.08 423.241 305.56V303.76C423.241 302.64 422.761 301.72 421.801 301.04C420.841 300.36 419.001 300 416.321 300C414.121 300 411.241 300.44 407.721 301.32C406.401 301.64 405.401 301.8 404.681 301.8C403.681 301.8 402.841 301.44 402.161 300.72C401.481 300 401.121 299.08 401.121 297.96C401.121 297.32 401.241 296.8 401.481 296.32C401.721 295.84 402.081 295.48 402.481 295.2C402.921 294.92 403.841 294.6 405.201 294.2C407.041 293.68 408.921 293.28 410.841 293C412.761 292.68 414.481 292.56 416.041 292.56C420.681 292.56 424.281 293.56 426.841 295.56C429.401 297.56 430.681 300.28 430.681 303.76V319.12H431.961C433.761 319.12 435.041 319.48 435.801 320.16C436.561 320.84 436.961 321.76 436.961 322.88C436.961 324 436.561 324.88 435.801 325.56C435.041 326.24 433.761 326.6 431.961 326.6H423.241L423.281 326.52ZM423.281 313.16C420.281 312.56 417.561 312.28 415.041 312.28C412.001 312.28 409.401 313.04 407.201 314.48C405.841 315.44 405.161 316.4 405.161 317.36C405.161 318.08 405.481 318.64 406.161 319.08C407.361 319.88 409.041 320.28 411.161 320.28C412.961 320.28 415.001 319.92 417.241 319.24C419.521 318.52 421.521 317.56 423.281 316.36V313.16Z" fill="black"/>
<path d="M465.002 279.36V319.08H473.962C475.762 319.08 477.042 319.44 477.802 320.12C478.562 320.8 478.962 321.72 478.962 322.84C478.962 323.96 478.602 324.84 477.802 325.52C477.042 326.2 475.762 326.56 473.962 326.56H448.602C446.802 326.56 445.522 326.2 444.762 325.52C444.002 324.84 443.602 323.92 443.602 322.8C443.602 321.68 444.002 320.8 444.762 320.12C445.522 319.44 446.802 319.08 448.602 319.08H457.562V286.84H451.562C449.802 286.84 448.522 286.48 447.762 285.8C447.002 285.12 446.602 284.2 446.602 283.08C446.602 281.96 447.002 281.08 447.762 280.4C448.522 279.72 449.802 279.36 451.602 279.36H465.042H465.002Z" fill="black"/>
<path d="M509.681 279.36V319.08H518.641C520.441 319.08 521.721 319.44 522.481 320.12C523.241 320.8 523.641 321.72 523.641 322.84C523.641 323.96 523.241 324.84 522.481 325.52C521.721 326.2 520.441 326.56 518.641 326.56H493.281C491.481 326.56 490.201 326.2 489.441 325.52C488.681 324.84 488.281 323.92 488.281 322.8C488.281 321.68 488.641 320.8 489.441 320.12C490.201 319.44 491.481 319.08 493.281 319.08H502.241V286.84H496.241C494.481 286.84 493.201 286.48 492.401 285.8C491.641 285.12 491.241 284.2 491.241 283.08C491.241 281.96 491.641 281.08 492.401 280.4C493.161 279.72 494.441 279.36 496.241 279.36H509.681Z" fill="black"/>
<path d="M557.32 326.52V324.76C555.44 325.76 553.4 326.48 551.16 327C548.92 327.48 546.84 327.76 545 327.76C541 327.76 537.76 326.72 535.24 324.6C532.72 322.48 531.48 320.12 531.48 317.56C531.48 314.44 533.081 311.52 536.281 308.84C539.481 306.16 543.88 304.84 549.48 304.84C551.72 304.84 554.321 305.08 557.281 305.56V303.76C557.281 302.64 556.801 301.72 555.841 301.04C554.881 300.36 553.04 300 550.36 300C548.16 300 545.28 300.44 541.8 301.32C540.48 301.64 539.48 301.8 538.76 301.8C537.76 301.8 536.92 301.44 536.24 300.72C535.56 300 535.201 299.08 535.201 297.96C535.201 297.32 535.32 296.8 535.56 296.32C535.8 295.84 536.16 295.48 536.56 295.2C537 294.92 537.921 294.6 539.281 294.2C541.121 293.68 543 293.28 544.92 293C546.84 292.72 548.56 292.56 550.12 292.56C554.76 292.56 558.36 293.56 560.92 295.56C563.48 297.56 564.76 300.28 564.76 303.76V319.12H566.04C567.84 319.12 569.12 319.48 569.88 320.16C570.64 320.84 571.04 321.76 571.04 322.88C571.04 324 570.64 324.88 569.88 325.56C569.12 326.24 567.84 326.6 566.04 326.6H557.32V326.52ZM557.32 313.16C554.32 312.56 551.601 312.28 549.081 312.28C546.041 312.28 543.441 313.04 541.281 314.48C539.921 315.44 539.24 316.4 539.24 317.36C539.24 318.08 539.56 318.64 540.24 319.08C541.44 319.88 543.12 320.28 545.24 320.28C547.04 320.28 549.08 319.92 551.32 319.24C553.56 318.56 555.6 317.56 557.36 316.36V313.16H557.32Z" fill="black"/>
<path d="M603.358 302.2C602.158 301.44 600.878 300.88 599.558 300.52C598.238 300.16 596.838 299.96 595.358 299.96C592.478 299.96 590.198 300.44 588.478 301.36C587.718 301.76 587.358 302.2 587.358 302.72C587.358 303.28 587.878 303.84 588.878 304.36C589.638 304.76 591.398 305.12 594.078 305.48C599.038 306.16 602.478 306.84 604.398 307.52C606.958 308.4 608.918 309.76 610.278 311.52C611.638 313.28 612.358 315.16 612.358 317.12C612.358 319.8 611.198 322 608.838 323.8C605.478 326.4 601.078 327.68 595.718 327.68C593.558 327.68 591.558 327.48 589.718 327.12C587.878 326.76 586.198 326.2 584.678 325.48C584.318 325.8 583.918 326.04 583.518 326.2C583.118 326.36 582.678 326.44 582.238 326.44C581.078 326.44 580.158 326.08 579.438 325.28C578.758 324.52 578.398 323.24 578.398 321.44V318.92C578.398 317.12 578.758 315.84 579.438 315.08C580.118 314.32 581.038 313.92 582.158 313.92C583.038 313.92 583.798 314.16 584.398 314.68C584.998 315.16 585.478 316.04 585.798 317.24C586.918 318.2 588.318 318.96 589.918 319.44C591.518 319.92 593.358 320.2 595.438 320.2C598.838 320.2 601.518 319.68 603.398 318.6C604.278 318.08 604.758 317.52 604.758 316.92C604.758 315.96 604.118 315.16 602.838 314.52C601.558 313.88 598.878 313.36 594.878 312.92C588.878 312.28 584.878 311.08 582.878 309.28C580.878 307.52 579.878 305.32 579.878 302.72C579.878 300.12 580.998 297.84 583.278 296.08C586.318 293.64 590.318 292.44 595.278 292.44C596.998 292.44 598.638 292.6 600.238 292.92C601.838 293.24 603.358 293.76 604.798 294.44C605.278 294.12 605.678 293.84 606.078 293.68C606.478 293.52 606.838 293.44 607.198 293.44C608.198 293.44 609.078 293.84 609.758 294.6C610.438 295.36 610.758 296.64 610.758 298.44V300.28C610.758 301.92 610.558 303 610.158 303.6C609.398 304.72 608.318 305.28 606.998 305.28C606.118 305.28 605.318 305 604.638 304.44C603.958 303.88 603.518 303.16 603.318 302.24L603.358 302.2Z" fill="black"/>
<path d="M701.8 279.36V319.08H703.08C704.84 319.08 706.12 319.44 706.92 320.12C707.68 320.8 708.08 321.72 708.08 322.84C708.08 323.96 707.72 324.84 706.92 325.52C706.16 326.2 704.88 326.56 703.08 326.56H694.36V324.72C692.68 325.72 690.88 326.48 689.04 326.96C687.2 327.48 685.28 327.72 683.28 327.72C677.68 327.72 673.16 326.12 669.76 322.88C666.36 319.64 664.64 315.6 664.64 310.8C664.64 306 666.44 301.44 670.04 297.88C673.64 294.32 678 292.52 683.16 292.52C685.08 292.52 687 292.8 688.88 293.4C690.76 294 692.6 294.88 694.4 296.08V286.8H693.12C691.32 286.8 690.04 286.44 689.28 285.76C688.52 285.08 688.12 284.16 688.12 283.08C688.12 282 688.52 281.08 689.28 280.36C690.04 279.68 691.32 279.32 693.12 279.32H701.84L701.8 279.36ZM694.36 311C694.36 307.92 693.28 305.32 691.12 303.2C688.96 301.08 686.32 300 683.2 300C680.08 300 677.48 301.08 675.32 303.2C673.16 305.32 672.08 307.92 672.08 310.92C672.08 313.68 673.04 315.92 675 317.68C676.92 319.44 679.68 320.32 683.2 320.32C686.72 320.32 689.44 319.44 691.4 317.68C693.36 315.92 694.36 313.72 694.36 311.04V311Z" fill="black"/>
<path d="M748.078 313.76H717.518C718.278 315.68 719.678 317.28 721.638 318.44C723.598 319.6 726.278 320.24 729.638 320.24C732.398 320.24 736.078 319.64 740.638 318.44C742.518 317.96 743.838 317.72 744.558 317.72C745.558 317.72 746.398 318.08 747.078 318.76C747.758 319.48 748.078 320.36 748.078 321.4C748.078 322.36 747.718 323.2 746.998 323.88C746.038 324.76 743.678 325.64 739.918 326.44C736.158 327.24 732.558 327.64 729.078 327.64C723.118 327.64 718.358 325.96 714.758 322.6C711.198 319.24 709.398 315.08 709.398 310.16C709.398 304.92 711.318 300.68 715.198 297.36C719.078 294.04 723.518 292.44 728.558 292.44C731.598 292.44 734.358 292.96 736.918 294.04C739.438 295.12 741.318 296.24 742.558 297.48C744.318 299.28 745.758 301.48 746.878 304.12C747.638 305.96 748.038 308.08 748.038 310.52V313.68L748.078 313.76ZM739.838 306.32C738.678 304.2 737.198 302.6 735.358 301.52C733.518 300.44 731.318 299.92 728.758 299.92C726.198 299.92 724.038 300.44 722.198 301.52C720.358 302.56 718.838 304.16 717.678 306.32H739.798H739.838Z" fill="black"/>
<path d="M826.8 302.2C825.6 301.44 824.32 300.88 822.96 300.52C821.6 300.16 820.24 299.96 818.8 299.96C815.92 299.96 813.64 300.44 811.92 301.36C811.16 301.76 810.8 302.2 810.8 302.72C810.8 303.28 811.32 303.84 812.32 304.36C813.08 304.76 814.84 305.12 817.52 305.48C822.48 306.16 825.92 306.84 827.84 307.52C830.4 308.4 832.36 309.76 833.72 311.52C835.12 313.28 835.8 315.16 835.8 317.12C835.8 319.8 834.64 322 832.28 323.8C828.92 326.4 824.52 327.68 819.16 327.68C817 327.68 815 327.48 813.16 327.12C811.32 326.76 809.64 326.2 808.12 325.48C807.76 325.8 807.36 326.04 806.96 326.2C806.56 326.36 806.12 326.44 805.68 326.44C804.52 326.44 803.6 326.08 802.88 325.28C802.2 324.52 801.84 323.24 801.84 321.44V318.92C801.84 317.12 802.2 315.84 802.88 315.08C803.56 314.32 804.48 313.92 805.6 313.92C806.48 313.92 807.24 314.16 807.84 314.68C808.44 315.16 808.92 316.04 809.24 317.24C810.4 318.2 811.76 318.96 813.36 319.44C814.96 319.92 816.8 320.2 818.88 320.2C822.28 320.2 824.96 319.68 826.84 318.6C827.72 318.08 828.2 317.52 828.2 316.92C828.2 315.96 827.56 315.16 826.28 314.52C825 313.88 822.32 313.36 818.32 312.92C812.32 312.28 808.32 311.08 806.32 309.28C804.32 307.52 803.32 305.32 803.32 302.72C803.32 300.12 804.44 297.84 806.72 296.08C809.76 293.64 813.76 292.44 818.72 292.44C820.44 292.44 822.08 292.6 823.68 292.92C825.28 293.24 826.8 293.76 828.24 294.44C828.72 294.12 829.12 293.84 829.52 293.68C829.92 293.52 830.28 293.44 830.64 293.44C831.64 293.44 832.52 293.84 833.2 294.6C833.88 295.36 834.2 296.64 834.2 298.44V300.28C834.2 301.92 834 303 833.6 303.6C832.84 304.72 831.76 305.28 830.44 305.28C829.56 305.28 828.76 305 828.08 304.44C827.4 303.88 826.96 303.16 826.76 302.24L826.8 302.2Z" fill="black"/>
<path d="M882.16 313.76H851.6C852.36 315.68 853.76 317.28 855.72 318.44C857.68 319.6 860.36 320.24 863.72 320.24C866.48 320.24 870.16 319.64 874.72 318.44C876.6 317.96 877.921 317.72 878.641 317.72C879.641 317.72 880.48 318.08 881.16 318.76C881.84 319.48 882.16 320.36 882.16 321.4C882.16 322.36 881.801 323.2 881.081 323.88C880.121 324.76 877.76 325.64 874 326.44C870.24 327.24 866.64 327.64 863.16 327.64C857.2 327.64 852.441 325.96 848.841 322.6C845.281 319.24 843.48 315.08 843.48 310.16C843.48 304.92 845.401 300.68 849.281 297.36C853.161 294.04 857.601 292.44 862.641 292.44C865.681 292.44 868.44 292.96 871 294.04C873.52 295.12 875.401 296.24 876.641 297.48C878.401 299.28 879.841 301.48 880.961 304.12C881.721 305.96 882.12 308.08 882.12 310.52V313.68L882.16 313.76ZM873.92 306.32C872.76 304.2 871.28 302.6 869.44 301.52C867.6 300.44 865.401 299.92 862.841 299.92C860.281 299.92 858.121 300.44 856.281 301.52C854.441 302.56 852.92 304.16 851.76 306.32H873.88H873.92Z" fill="black"/>
<path d="M906.562 293.48V298.12C909.682 295.88 912.162 294.36 913.962 293.6C915.762 292.84 917.482 292.48 919.042 292.48C921.482 292.48 923.802 293.36 926.082 295.16C927.642 296.36 928.402 297.6 928.402 298.88C928.402 299.96 928.042 300.84 927.282 301.6C926.522 302.36 925.642 302.72 924.602 302.72C923.682 302.72 922.722 302.24 921.682 301.32C920.682 300.4 919.762 299.96 918.962 299.96C917.922 299.96 916.362 300.6 914.282 301.92C912.202 303.24 909.602 305.2 906.522 307.8V319.04H917.122C918.922 319.04 920.202 319.4 920.962 320.08C921.722 320.76 922.122 321.68 922.122 322.8C922.122 323.92 921.762 324.8 920.962 325.48C920.202 326.16 918.922 326.52 917.122 326.52H894.602C892.802 326.52 891.522 326.16 890.762 325.48C890.002 324.8 889.602 323.88 889.602 322.76C889.602 321.64 890.002 320.76 890.762 320.08C891.522 319.4 892.802 319.04 894.602 319.04H899.042V300.92H896.362C894.562 300.92 893.282 300.56 892.522 299.88C891.762 299.2 891.362 298.28 891.362 297.16C891.362 296.04 891.762 295.16 892.522 294.48C893.282 293.8 894.562 293.44 896.362 293.44H906.522L906.562 293.48Z" fill="black"/>
<path d="M985.999 293.48V295.6C987.199 294.4 988.319 293.6 989.279 293.16C990.279 292.72 991.399 292.48 992.679 292.48C993.759 292.48 994.839 292.76 995.919 293.28C996.999 293.8 998.039 294.6 999.039 295.68C1000.32 294.6 1001.64 293.84 1002.96 293.32C1004.28 292.8 1005.64 292.52 1007 292.52C1009.76 292.52 1012 293.24 1013.72 294.72C1016 296.68 1017.12 299.2 1017.12 302.36V319.04C1018.68 319.04 1019.84 319.4 1020.56 320.08C1021.28 320.76 1021.68 321.68 1021.68 322.76C1021.68 323.84 1021.32 324.76 1020.56 325.44C1019.8 326.12 1018.52 326.48 1016.76 326.48H1009.68V302.96C1009.68 301.84 1009.48 301.04 1009.08 300.6C1008.68 300.16 1008.04 299.96 1007.2 299.96C1006.36 299.96 1005.6 300.16 1004.92 300.6C1004.04 301.2 1002.92 302.36 1001.64 304V319C1003.2 319 1004.36 319.36 1005.08 320.04C1005.84 320.76 1006.2 321.64 1006.2 322.72C1006.2 323.8 1005.84 324.72 1005.08 325.4C1004.32 326.08 1003.04 326.44 1001.24 326.44H994.159V302.92C994.159 301.8 993.959 301.04 993.519 300.56C993.079 300.12 992.479 299.88 991.599 299.88C990.719 299.88 989.879 300.16 988.999 300.68C988.159 301.24 987.119 302.32 985.959 303.92V318.92C987.519 318.92 988.679 319.28 989.439 319.96C990.199 320.68 990.599 321.56 990.599 322.64C990.599 323.72 990.199 324.64 989.439 325.32C988.679 326 987.399 326.36 985.599 326.36H978.879C977.079 326.36 975.799 326 975.039 325.32C974.279 324.64 973.879 323.72 973.879 322.6C973.879 321.48 974.239 320.6 974.999 319.92C975.759 319.24 976.919 318.88 978.479 318.88V300.76C976.919 300.76 975.719 300.4 974.999 299.72C974.279 299.04 973.879 298.12 973.879 297.04C973.879 295.96 974.239 295.04 975.039 294.36C975.799 293.68 977.079 293.32 978.879 293.32H985.959L985.999 293.48Z" fill="black"/>
<path d="M1048.88 326.52V324.76C1047 325.76 1044.96 326.48 1042.72 327C1040.48 327.48 1038.4 327.76 1036.56 327.76C1032.56 327.76 1029.32 326.72 1026.8 324.6C1024.28 322.48 1023.04 320.12 1023.04 317.56C1023.04 314.44 1024.64 311.52 1027.84 308.84C1031.04 306.16 1035.44 304.84 1041.04 304.84C1043.28 304.84 1045.88 305.08 1048.84 305.56V303.76C1048.84 302.64 1048.36 301.72 1047.4 301.04C1046.44 300.32 1044.6 300 1041.92 300C1039.72 300 1036.84 300.44 1033.32 301.32C1032 301.64 1031 301.8 1030.28 301.8C1029.28 301.8 1028.44 301.44 1027.76 300.72C1027.08 300 1026.72 299.08 1026.72 297.96C1026.72 297.32 1026.84 296.8 1027.08 296.32C1027.32 295.84 1027.68 295.48 1028.08 295.2C1028.52 294.92 1029.44 294.6 1030.8 294.2C1032.64 293.68 1034.52 293.28 1036.44 293C1038.36 292.68 1040.08 292.56 1041.64 292.56C1046.28 292.56 1049.88 293.56 1052.4 295.56C1054.96 297.56 1056.24 300.28 1056.24 303.76V319.12H1057.52C1059.32 319.12 1060.6 319.48 1061.36 320.16C1062.12 320.84 1062.52 321.76 1062.52 322.88C1062.52 324 1062.16 324.88 1061.36 325.56C1060.6 326.24 1059.32 326.6 1057.52 326.6H1048.8L1048.88 326.52ZM1048.88 313.16C1045.88 312.56 1043.16 312.28 1040.64 312.28C1037.6 312.28 1035 313.04 1032.84 314.48C1031.48 315.44 1030.8 316.4 1030.8 317.36C1030.8 318.08 1031.12 318.64 1031.8 319.08C1033 319.88 1034.68 320.28 1036.8 320.28C1038.6 320.28 1040.64 319.92 1042.88 319.24C1045.16 318.52 1047.16 317.56 1048.92 316.36V313.16H1048.88Z" fill="black"/>
<path d="M1103.96 279.36V319.08H1105.24C1107 319.08 1108.28 319.44 1109.08 320.12C1109.84 320.8 1110.24 321.72 1110.24 322.84C1110.24 323.96 1109.88 324.84 1109.08 325.52C1108.32 326.2 1107.04 326.56 1105.24 326.56H1096.52V324.72C1094.84 325.72 1093.04 326.48 1091.2 326.96C1089.36 327.48 1087.44 327.72 1085.44 327.72C1079.84 327.72 1075.32 326.12 1071.92 322.88C1068.52 319.64 1066.8 315.6 1066.8 310.8C1066.8 306 1068.6 301.44 1072.2 297.88C1075.8 294.32 1080.16 292.52 1085.32 292.52C1087.24 292.52 1089.16 292.8 1091.04 293.4C1092.92 294 1094.76 294.88 1096.56 296.08V286.8H1095.28C1093.48 286.8 1092.2 286.44 1091.44 285.76C1090.68 285.08 1090.28 284.16 1090.28 283.08C1090.28 282 1090.68 281.08 1091.44 280.36C1092.2 279.68 1093.48 279.32 1095.28 279.32H1104L1103.96 279.36ZM1096.52 311C1096.52 307.92 1095.44 305.32 1093.28 303.2C1091.12 301.08 1088.48 300 1085.36 300C1082.24 300 1079.64 301.08 1077.48 303.2C1075.32 305.32 1074.24 307.92 1074.24 310.92C1074.24 313.68 1075.2 315.92 1077.16 317.68C1079.08 319.44 1081.84 320.32 1085.36 320.32C1088.88 320.32 1091.6 319.44 1093.56 317.68C1095.52 315.92 1096.52 313.72 1096.52 311.04V311Z" fill="black"/>
<path d="M1130 293.48V298.12C1133.12 295.88 1135.6 294.36 1137.4 293.6C1139.2 292.84 1140.92 292.48 1142.48 292.48C1144.92 292.48 1147.24 293.36 1149.52 295.16C1151.08 296.36 1151.84 297.6 1151.84 298.88C1151.84 299.96 1151.48 300.84 1150.72 301.6C1149.96 302.36 1149.08 302.72 1148.04 302.72C1147.12 302.72 1146.16 302.24 1145.12 301.32C1144.12 300.4 1143.2 299.96 1142.4 299.96C1141.36 299.96 1139.8 300.6 1137.72 301.92C1135.64 303.24 1133.04 305.2 1129.96 307.8V319.04H1140.56C1142.36 319.04 1143.64 319.4 1144.4 320.08C1145.16 320.76 1145.56 321.68 1145.56 322.8C1145.56 323.92 1145.2 324.8 1144.4 325.48C1143.64 326.16 1142.36 326.52 1140.56 326.52H1118.04C1116.24 326.52 1114.96 326.16 1114.2 325.48C1113.44 324.8 1113.04 323.88 1113.04 322.76C1113.04 321.64 1113.44 320.76 1114.2 320.08C1114.96 319.4 1116.24 319.04 1118.04 319.04H1122.48V300.92H1119.8C1118 300.92 1116.72 300.56 1115.96 299.88C1115.2 299.2 1114.8 298.28 1114.8 297.16C1114.8 296.04 1115.2 295.16 1115.96 294.48C1116.72 293.8 1118 293.44 1119.8 293.44H1129.96L1130 293.48Z" fill="black"/>
<path d="M1194.96 313.76H1164.4C1165.16 315.68 1166.56 317.28 1168.52 318.44C1170.48 319.6 1173.16 320.24 1176.52 320.24C1179.28 320.24 1182.96 319.64 1187.52 318.44C1189.4 317.96 1190.72 317.72 1191.44 317.72C1192.44 317.72 1193.28 318.08 1193.96 318.76C1194.64 319.48 1194.96 320.36 1194.96 321.4C1194.96 322.36 1194.6 323.2 1193.88 323.88C1192.92 324.76 1190.56 325.64 1186.8 326.44C1183.04 327.24 1179.44 327.64 1175.96 327.64C1170 327.64 1165.24 325.96 1161.64 322.6C1158.08 319.24 1156.28 315.08 1156.28 310.16C1156.28 304.92 1158.2 300.68 1162.08 297.36C1165.96 294.04 1170.4 292.44 1175.44 292.44C1178.48 292.44 1181.24 292.96 1183.8 294.04C1186.32 295.12 1188.2 296.24 1189.44 297.48C1191.2 299.28 1192.64 301.48 1193.76 304.12C1194.52 305.96 1194.92 308.08 1194.92 310.52V313.68L1194.96 313.76ZM1186.72 306.32C1185.56 304.2 1184.08 302.6 1182.24 301.52C1180.4 300.44 1178.2 299.92 1175.64 299.92C1173.08 299.92 1170.92 300.44 1169.08 301.52C1167.24 302.56 1165.72 304.16 1164.56 306.32H1186.68H1186.72Z" fill="black"/>
<path d="M199.84 415.88V414.12C197.96 415.12 195.92 415.88 193.68 416.36C191.44 416.84 189.36 417.12 187.52 417.12C183.52 417.12 180.28 416.08 177.76 413.96C175.24 411.84 174 409.48 174 406.92C174 403.8 175.6 400.88 178.8 398.2C182 395.52 186.4 394.2 192 394.2C194.24 394.2 196.84 394.44 199.8 394.92V393.12C199.8 392 199.32 391.08 198.36 390.4C197.4 389.72 195.56 389.36 192.88 389.36C190.68 389.36 187.8 389.8 184.32 390.68C183 391 182 391.16 181.28 391.16C180.28 391.16 179.44 390.8 178.76 390.08C178.08 389.36 177.72 388.44 177.72 387.32C177.72 386.68 177.84 386.16 178.08 385.68C178.32 385.2 178.68 384.84 179.08 384.56C179.52 384.28 180.44 383.96 181.8 383.56C183.64 383.04 185.52 382.64 187.44 382.36C189.36 382.08 191.08 381.92 192.64 381.92C197.28 381.92 200.88 382.92 203.44 384.92C206 386.92 207.28 389.64 207.28 393.12V408.48H208.56C210.36 408.48 211.64 408.84 212.4 409.52C213.16 410.2 213.56 411.12 213.56 412.24C213.56 413.36 213.16 414.24 212.4 414.92C211.64 415.6 210.36 415.96 208.56 415.96H199.84V415.88ZM199.84 402.52C196.84 401.92 194.12 401.64 191.6 401.64C188.56 401.64 185.96 402.36 183.8 403.84C182.44 404.8 181.76 405.76 181.76 406.72C181.76 407.44 182.08 408 182.76 408.44C183.96 409.24 185.64 409.64 187.76 409.64C189.56 409.64 191.6 409.28 193.84 408.6C196.08 407.92 198.12 406.92 199.88 405.72V402.52H199.84Z" fill="black"/>
<path d="M241.56 368.72V408.44H250.52C252.32 408.44 253.6 408.8 254.36 409.48C255.12 410.16 255.52 411.08 255.52 412.2C255.52 413.32 255.16 414.2 254.36 414.88C253.6 415.56 252.32 415.92 250.52 415.92H225.16C223.36 415.92 222.08 415.56 221.32 414.88C220.56 414.2 220.16 413.28 220.16 412.16C220.16 411.04 220.56 410.16 221.32 409.48C222.08 408.8 223.36 408.44 225.16 408.44H234.12V376.2H228.12C226.36 376.2 225.08 375.84 224.32 375.16C223.56 374.48 223.16 373.56 223.16 372.44C223.16 371.32 223.56 370.44 224.32 369.76C225.08 369.08 226.36 368.72 228.16 368.72H241.6H241.56Z" fill="black"/>
<path d="M330.92 368.72V408.44H339.88C341.68 408.44 342.96 408.8 343.72 409.48C344.48 410.16 344.88 411.08 344.88 412.2C344.88 413.32 344.48 414.2 343.72 414.88C342.96 415.56 341.68 415.92 339.88 415.92H314.52C312.72 415.92 311.44 415.56 310.68 414.88C309.92 414.2 309.52 413.28 309.52 412.16C309.52 411.04 309.88 410.16 310.68 409.48C311.44 408.8 312.72 408.44 314.52 408.44H323.48V376.2H317.48C315.72 376.2 314.44 375.84 313.64 375.16C312.88 374.48 312.48 373.56 312.48 372.44C312.48 371.32 312.88 370.44 313.64 369.76C314.4 369.08 315.68 368.72 317.48 368.72H330.92Z" fill="black"/>
<path d="M378.602 415.88V414.12C376.722 415.12 374.682 415.88 372.442 416.36C370.202 416.84 368.122 417.12 366.282 417.12C362.282 417.12 359.042 416.08 356.522 413.96C354.002 411.84 352.762 409.48 352.762 406.92C352.762 403.8 354.362 400.88 357.562 398.2C360.762 395.52 365.162 394.2 370.762 394.2C373.002 394.2 375.602 394.44 378.562 394.92V393.12C378.562 392 378.082 391.08 377.122 390.4C376.162 389.72 374.322 389.36 371.642 389.36C369.442 389.36 366.562 389.8 363.082 390.68C361.762 391 360.762 391.16 360.042 391.16C359.042 391.16 358.202 390.8 357.522 390.08C356.842 389.36 356.482 388.44 356.482 387.32C356.482 386.68 356.602 386.16 356.842 385.68C357.082 385.2 357.442 384.84 357.842 384.56C358.282 384.28 359.202 383.96 360.562 383.56C362.402 383.04 364.282 382.64 366.202 382.36C368.122 382.08 369.842 381.92 371.402 381.92C376.042 381.92 379.642 382.92 382.202 384.92C384.762 386.92 386.042 389.64 386.042 393.12V408.48H387.322C389.122 408.48 390.402 408.84 391.162 409.52C391.922 410.2 392.322 411.12 392.322 412.24C392.322 413.36 391.922 414.24 391.162 414.92C390.402 415.6 389.122 415.96 387.322 415.96H378.602V415.88ZM378.602 402.52C375.602 401.92 372.882 401.64 370.362 401.64C367.322 401.64 364.722 402.36 362.562 403.84C361.202 404.8 360.522 405.76 360.522 406.72C360.522 407.44 360.842 408 361.522 408.44C362.722 409.24 364.402 409.64 366.522 409.64C368.322 409.64 370.362 409.28 372.602 408.6C374.842 407.92 376.882 406.92 378.642 405.72V402.52H378.602Z" fill="black"/>
<path d="M433.68 368.72V408.44H434.96C436.72 408.44 438 408.8 438.8 409.48C439.56 410.16 439.96 411.08 439.96 412.2C439.96 413.32 439.56 414.2 438.8 414.88C438.04 415.56 436.76 415.92 434.96 415.92H426.24V414.12C424.56 415.12 422.76 415.88 420.92 416.36C419.08 416.88 417.16 417.12 415.16 417.12C409.56 417.12 405.04 415.52 401.64 412.28C398.24 409.04 396.52 405 396.52 400.2C396.52 395.4 398.32 390.84 401.92 387.28C405.52 383.72 409.88 381.92 415.04 381.92C417 381.92 418.88 382.2 420.76 382.8C422.64 383.4 424.48 384.28 426.28 385.48V376.2H425C423.2 376.2 421.92 375.84 421.16 375.16C420.4 374.48 420 373.56 420 372.48C420 371.4 420.4 370.48 421.16 369.76C421.92 369.08 423.2 368.72 425 368.72H433.72H433.68ZM426.24 400.36C426.24 397.28 425.16 394.68 423 392.56C420.84 390.44 418.2 389.36 415.08 389.36C411.96 389.36 409.36 390.44 407.2 392.56C405.04 394.68 403.96 397.28 403.96 400.28C403.96 403.04 404.92 405.28 406.88 407.04C408.84 408.8 411.56 409.68 415.08 409.68C418.6 409.68 421.32 408.8 423.28 407.04C425.24 405.28 426.24 403.08 426.24 400.4V400.36Z" fill="black"/>
<path d="M480.6 399.96C480.6 402.84 479.8 405.6 478.2 408.28C476.6 410.96 474.24 413.08 471.12 414.68C467.96 416.28 464.72 417.08 461.28 417.08C457.84 417.08 454.64 416.28 451.52 414.72C448.4 413.16 446.04 411.04 444.44 408.32C442.8 405.64 442 402.8 442 399.88C442 396.96 442.84 393.96 444.48 391.08C446.12 388.2 448.48 385.96 451.6 384.28C454.68 382.64 457.92 381.8 461.28 381.8C464.64 381.8 467.96 382.64 471.08 384.32C474.2 386 476.6 388.28 478.2 391.12C479.8 393.96 480.6 396.88 480.6 399.92V399.96ZM473.16 399.96C473.16 397.56 472.28 395.36 470.56 393.36C468.2 390.64 465.12 389.28 461.28 389.28C457.92 389.28 455.12 390.36 452.84 392.52C450.6 394.68 449.44 397.16 449.44 400C449.44 402.32 450.6 404.52 452.84 406.52C455.08 408.52 457.92 409.56 461.24 409.56C464.56 409.56 467.4 408.56 469.68 406.52C471.96 404.48 473.08 402.32 473.08 399.96H473.16Z" fill="black"/>
<path d="M567.719 368.72V408.44H569C570.76 408.44 572.039 408.8 572.799 409.48C573.559 410.16 573.96 411.08 573.96 412.2C573.96 413.32 573.559 414.2 572.799 414.88C572.039 415.56 570.76 415.92 568.96 415.92H560.24V414.12C558.56 415.12 556.759 415.88 554.919 416.36C553.079 416.88 551.159 417.12 549.159 417.12C543.559 417.12 539.04 415.52 535.64 412.28C532.24 409.04 530.52 405 530.52 400.2C530.52 395.4 532.32 390.84 535.88 387.28C539.48 383.72 543.84 381.92 549 381.92C550.92 381.92 552.839 382.2 554.719 382.8C556.599 383.4 558.44 384.28 560.24 385.48V376.2H558.96C557.16 376.2 555.88 375.84 555.12 375.16C554.36 374.48 553.96 373.56 553.96 372.48C553.96 371.4 554.36 370.48 555.12 369.76C555.88 369.08 557.16 368.72 558.96 368.72H567.68H567.719ZM560.28 400.36C560.28 397.28 559.199 394.68 557.039 392.56C554.879 390.44 552.24 389.36 549.12 389.36C546 389.36 543.4 390.44 541.24 392.56C539.08 394.68 538 397.28 538 400.28C538 403.04 538.959 405.28 540.919 407.04C542.839 408.8 545.6 409.68 549.12 409.68C552.64 409.68 555.36 408.8 557.32 407.04C559.28 405.28 560.28 403.08 560.28 400.4V400.36Z" fill="black"/>
<path d="M614 403.12H583.44C584.2 405.08 585.6 406.64 587.56 407.8C589.52 409 592.2 409.6 595.56 409.6C598.32 409.6 602 409 606.56 407.8C608.44 407.32 609.76 407.08 610.48 407.08C611.48 407.08 612.32 407.44 613 408.12C613.68 408.8 614 409.72 614 410.76C614 411.72 613.64 412.56 612.92 413.24C611.96 414.12 609.6 415 605.84 415.8C602.08 416.6 598.48 417 595 417C589.04 417 584.28 415.32 580.68 411.96C577.12 408.6 575.32 404.44 575.32 399.52C575.32 394.28 577.24 390.04 581.12 386.72C585 383.4 589.44 381.8 594.48 381.8C597.52 381.8 600.28 382.32 602.84 383.4C605.36 384.48 607.24 385.6 608.48 386.84C610.24 388.64 611.68 390.84 612.8 393.48C613.56 395.32 613.96 397.44 613.96 399.88V403.04L614 403.12ZM605.76 395.68C604.6 393.56 603.12 391.96 601.28 390.88C599.44 389.84 597.24 389.28 594.72 389.28C592.2 389.28 590 389.8 588.16 390.88C586.32 391.96 584.8 393.52 583.64 395.68H605.76Z" fill="black"/>
<path d="M704.04 399.96C704.04 402.84 703.24 405.6 701.68 408.28C700.08 410.96 697.72 413.08 694.6 414.68C691.44 416.28 688.2 417.08 684.76 417.08C681.32 417.08 678.12 416.28 675 414.72C671.88 413.16 669.52 411.04 667.92 408.32C666.32 405.6 665.48 402.8 665.48 399.88C665.48 396.96 666.321 393.96 667.961 391.08C669.601 388.2 671.961 385.96 675.081 384.28C678.201 382.6 681.4 381.8 684.76 381.8C688.12 381.8 691.44 382.64 694.56 384.32C697.72 386 700.08 388.28 701.68 391.12C703.28 393.96 704.081 396.88 704.081 399.92L704.04 399.96ZM696.6 399.96C696.6 397.56 695.76 395.36 694 393.36C691.64 390.64 688.56 389.28 684.72 389.28C681.36 389.28 678.521 390.36 676.281 392.52C674.041 394.68 672.92 397.16 672.92 400C672.92 402.32 674.04 404.52 676.32 406.52C678.6 408.56 681.4 409.56 684.72 409.56C688.04 409.56 690.88 408.56 693.16 406.52C695.44 404.48 696.56 402.32 696.56 399.96H696.6Z" fill="black"/>
<path d="M727.521 390.32V405.28C727.521 406.88 727.841 407.92 728.521 408.44C729.521 409.24 731.361 409.64 733.961 409.64C737.761 409.64 741.281 408.84 744.521 407.2C745.761 406.56 746.721 406.24 747.441 406.24C748.401 406.24 749.241 406.6 749.961 407.32C750.681 408.04 751.041 408.92 751.041 409.96C751.041 410.92 750.641 411.76 749.881 412.48C748.681 413.64 746.361 414.68 742.841 415.64C739.321 416.6 736.401 417.08 734.001 417.08C729.361 417.08 725.881 416.08 723.601 414.08C721.281 412.08 720.121 409.64 720.121 406.72V390.32H717.441C715.641 390.32 714.361 389.96 713.601 389.28C712.841 388.6 712.441 387.68 712.441 386.56C712.441 385.44 712.801 384.56 713.601 383.88C714.361 383.2 715.641 382.84 717.441 382.84H720.121V376.12C720.121 374.32 720.481 373.04 721.161 372.28C721.841 371.52 722.761 371.12 723.881 371.12C725.001 371.12 725.881 371.48 726.561 372.28C727.241 373.04 727.601 374.32 727.601 376.12V382.84H741.401C743.201 382.84 744.481 383.2 745.241 383.88C746.001 384.56 746.401 385.48 746.401 386.6C746.401 387.72 746.001 388.6 745.241 389.28C744.481 389.96 743.201 390.32 741.401 390.32H727.601H727.521Z" fill="black"/>
<path d="M772.519 382.84V387.48C775.639 385.24 778.119 383.72 779.919 382.96C781.719 382.2 783.439 381.84 784.999 381.84C787.439 381.84 789.759 382.72 792.039 384.52C793.599 385.72 794.359 386.96 794.359 388.24C794.359 389.32 793.999 390.2 793.239 390.96C792.479 391.72 791.599 392.08 790.559 392.08C789.639 392.08 788.679 391.6 787.639 390.68C786.639 389.76 785.719 389.32 784.919 389.32C783.879 389.32 782.319 389.96 780.239 391.28C778.159 392.6 775.559 394.56 772.479 397.16V408.4H783.079C784.879 408.4 786.159 408.76 786.919 409.44C787.679 410.12 788.079 411.04 788.079 412.16C788.079 413.28 787.719 414.16 786.919 414.84C786.159 415.52 784.879 415.88 783.079 415.88H760.559C758.759 415.88 757.479 415.52 756.719 414.84C755.959 414.16 755.559 413.24 755.559 412.12C755.559 411 755.959 410.12 756.719 409.44C757.479 408.76 758.759 408.4 760.559 408.4H764.999V390.28H762.319C760.519 390.28 759.239 389.92 758.479 389.24C757.719 388.56 757.319 387.64 757.319 386.52C757.319 385.4 757.719 384.52 758.479 383.84C759.239 383.16 760.519 382.8 762.319 382.8H772.479L772.519 382.84Z" fill="black"/>
<path d="M825.442 415.88V414.12C823.562 415.12 821.522 415.88 819.282 416.36C817.042 416.84 814.962 417.12 813.122 417.12C809.122 417.12 805.882 416.08 803.362 413.96C800.842 411.84 799.602 409.48 799.602 406.92C799.602 403.8 801.202 400.88 804.402 398.2C807.602 395.52 812.002 394.2 817.602 394.2C819.842 394.2 822.442 394.44 825.402 394.92V393.12C825.402 392 824.922 391.08 823.962 390.4C823.002 389.68 821.162 389.36 818.482 389.36C816.282 389.36 813.402 389.8 809.882 390.68C808.562 391 807.562 391.16 806.842 391.16C805.842 391.16 805.002 390.8 804.322 390.08C803.642 389.36 803.282 388.44 803.282 387.32C803.282 386.68 803.402 386.16 803.642 385.68C803.882 385.2 804.242 384.84 804.642 384.56C805.082 384.28 806.002 383.96 807.362 383.56C809.202 383.04 811.082 382.64 813.002 382.36C814.922 382.04 816.642 381.92 818.202 381.92C822.842 381.92 826.442 382.92 828.962 384.92C831.522 386.92 832.802 389.64 832.802 393.12V408.48H834.082C835.882 408.48 837.162 408.84 837.922 409.52C838.682 410.2 839.082 411.12 839.082 412.24C839.082 413.36 838.722 414.24 837.922 414.92C837.162 415.6 835.882 415.96 834.082 415.96H825.362L825.442 415.88ZM825.442 402.52C822.442 401.92 819.722 401.64 817.202 401.64C814.162 401.64 811.562 402.36 809.402 403.84C808.042 404.8 807.362 405.76 807.362 406.72C807.362 407.44 807.682 408 808.362 408.44C809.562 409.24 811.242 409.64 813.362 409.64C815.162 409.64 817.202 409.28 819.442 408.6C821.722 407.88 823.722 406.92 825.482 405.72V402.52H825.442Z" fill="black"/>
<path d="M896.6 382.84V384.96C897.8 383.76 898.92 382.96 899.88 382.52C900.88 382.08 902.001 381.84 903.281 381.84C904.361 381.84 905.441 382.12 906.521 382.64C907.601 383.16 908.641 383.96 909.641 385.04C910.921 383.96 912.24 383.2 913.56 382.68C914.88 382.16 916.24 381.88 917.6 381.88C920.36 381.88 922.6 382.6 924.32 384.08C926.6 386.04 927.72 388.56 927.72 391.72V408.4C929.28 408.4 930.44 408.76 931.16 409.44C931.88 410.12 932.281 411.04 932.281 412.12C932.281 413.2 931.92 414.12 931.16 414.8C930.4 415.48 929.12 415.84 927.36 415.84H920.281V392.32C920.281 391.2 920.08 390.4 919.68 389.96C919.28 389.52 918.64 389.32 917.8 389.32C916.96 389.32 916.201 389.52 915.521 389.96C914.641 390.56 913.52 391.72 912.24 393.4V408.4C913.8 408.4 914.96 408.76 915.68 409.44C916.44 410.16 916.8 411.04 916.8 412.12C916.8 413.2 916.44 414.12 915.68 414.8C914.92 415.48 913.641 415.84 911.841 415.84H904.76V392.32C904.76 391.2 904.56 390.44 904.12 389.96C903.68 389.52 903.081 389.28 902.201 389.28C901.321 389.28 900.48 389.56 899.6 390.08C898.76 390.64 897.72 391.72 896.56 393.32V408.32C898.12 408.32 899.28 408.68 900.04 409.36C900.8 410.08 901.201 410.96 901.201 412.04C901.201 413.12 900.8 414.04 900.04 414.72C899.28 415.4 898.001 415.76 896.201 415.76H889.48C887.68 415.76 886.401 415.4 885.641 414.72C884.881 414.04 884.48 413.12 884.48 412C884.48 410.88 884.84 410 885.6 409.32C886.36 408.64 887.521 408.28 889.081 408.28V390.16C887.521 390.16 886.32 389.8 885.6 389.12C884.88 388.44 884.48 387.52 884.48 386.44C884.48 385.36 884.841 384.44 885.641 383.76C886.401 383.08 887.68 382.72 889.48 382.72H896.56L896.6 382.84Z" fill="black"/>
<path d="M959.52 415.88V414.12C957.64 415.12 955.6 415.88 953.36 416.36C951.12 416.84 949.04 417.12 947.2 417.12C943.2 417.12 939.96 416.08 937.44 413.96C934.92 411.84 933.68 409.48 933.68 406.92C933.68 403.8 935.28 400.88 938.48 398.2C941.68 395.52 946.08 394.2 951.68 394.2C953.92 394.2 956.52 394.44 959.48 394.92V393.12C959.48 392 959 391.08 958.04 390.4C957.08 389.68 955.24 389.36 952.56 389.36C950.36 389.36 947.48 389.8 943.96 390.68C942.64 391 941.64 391.16 940.92 391.16C939.92 391.16 939.08 390.8 938.4 390.08C937.72 389.36 937.36 388.44 937.36 387.32C937.36 386.68 937.48 386.16 937.72 385.68C937.96 385.2 938.32 384.84 938.72 384.56C939.16 384.28 940.08 383.96 941.44 383.56C943.28 383.04 945.16 382.64 947.08 382.36C949 382.04 950.72 381.92 952.28 381.92C956.92 381.92 960.52 382.92 963.04 384.92C965.6 386.92 966.88 389.64 966.88 393.12V408.48H968.16C969.96 408.48 971.24 408.84 972 409.52C972.76 410.2 973.16 411.12 973.16 412.24C973.16 413.36 972.8 414.24 972 414.92C971.24 415.6 969.96 415.96 968.16 415.96H959.44L959.52 415.88ZM959.52 402.52C956.52 401.92 953.8 401.64 951.28 401.64C948.24 401.64 945.64 402.36 943.48 403.84C942.12 404.8 941.44 405.76 941.44 406.72C941.44 407.44 941.76 408 942.44 408.44C943.64 409.24 945.32 409.64 947.44 409.64C949.24 409.64 951.28 409.28 953.52 408.6C955.8 407.88 957.8 406.92 959.56 405.72V402.52H959.52Z" fill="black"/>
<path d="M1014.6 368.72V408.44H1015.88C1017.64 408.44 1018.92 408.8 1019.72 409.48C1020.48 410.16 1020.88 411.08 1020.88 412.2C1020.88 413.32 1020.52 414.2 1019.72 414.88C1018.96 415.56 1017.68 415.92 1015.88 415.92H1007.16V414.12C1005.48 415.12 1003.68 415.88 1001.84 416.36C1000 416.88 998.081 417.12 996.081 417.12C990.481 417.12 985.961 415.52 982.561 412.28C979.161 409.04 977.441 405 977.441 400.2C977.441 395.4 979.241 390.84 982.841 387.28C986.441 383.72 990.801 381.92 995.961 381.92C997.881 381.92 999.801 382.2 1001.68 382.8C1003.56 383.4 1005.4 384.28 1007.2 385.48V376.2H1005.92C1004.12 376.2 1002.84 375.84 1002.08 375.16C1001.32 374.48 1000.92 373.56 1000.92 372.48C1000.92 371.4 1001.32 370.48 1002.08 369.76C1002.84 369.08 1004.12 368.72 1005.92 368.72H1014.64H1014.6ZM1007.16 400.36C1007.16 397.28 1006.08 394.68 1003.92 392.56C1001.76 390.44 999.121 389.36 996.001 389.36C992.881 389.36 990.281 390.44 988.121 392.56C985.961 394.68 984.881 397.28 984.881 400.28C984.881 403.04 985.841 405.28 987.801 407.04C989.721 408.8 992.481 409.68 996.001 409.68C999.521 409.68 1002.24 408.8 1004.2 407.04C1006.16 405.28 1007.16 403.08 1007.16 400.4V400.36Z" fill="black"/>
<path d="M1040.64 382.84V387.48C1043.76 385.24 1046.24 383.72 1048.04 382.96C1049.84 382.2 1051.56 381.84 1053.12 381.84C1055.56 381.84 1057.88 382.72 1060.16 384.52C1061.72 385.72 1062.48 386.96 1062.48 388.24C1062.48 389.32 1062.12 390.2 1061.36 390.96C1060.6 391.72 1059.72 392.08 1058.68 392.08C1057.76 392.08 1056.8 391.6 1055.76 390.68C1054.76 389.76 1053.84 389.32 1053.04 389.32C1052 389.32 1050.44 389.96 1048.36 391.28C1046.28 392.6 1043.68 394.56 1040.6 397.16V408.4H1051.2C1053 408.4 1054.28 408.76 1055.04 409.44C1055.8 410.12 1056.2 411.04 1056.2 412.16C1056.2 413.28 1055.84 414.16 1055.04 414.84C1054.28 415.52 1053 415.88 1051.2 415.88H1028.68C1026.88 415.88 1025.6 415.52 1024.84 414.84C1024.08 414.16 1023.68 413.24 1023.68 412.12C1023.68 411 1024.08 410.12 1024.84 409.44C1025.6 408.76 1026.88 408.4 1028.68 408.4H1033.12V390.28H1030.44C1028.64 390.28 1027.36 389.92 1026.6 389.24C1025.84 388.56 1025.44 387.64 1025.44 386.52C1025.44 385.4 1025.84 384.52 1026.6 383.84C1027.36 383.16 1028.64 382.8 1030.44 382.8H1040.6L1040.64 382.84Z" fill="black"/>
<path d="M1105.56 403.12H1075C1075.76 405.08 1077.16 406.64 1079.12 407.8C1081.08 408.96 1083.76 409.6 1087.12 409.6C1089.88 409.6 1093.56 409 1098.12 407.8C1100 407.32 1101.32 407.08 1102.04 407.08C1103.04 407.08 1103.88 407.44 1104.56 408.12C1105.24 408.84 1105.56 409.72 1105.56 410.76C1105.56 411.72 1105.2 412.56 1104.48 413.24C1103.52 414.12 1101.16 415 1097.4 415.8C1093.64 416.6 1090.04 417 1086.56 417C1080.6 417 1075.84 415.32 1072.24 411.96C1068.68 408.6 1066.88 404.44 1066.88 399.52C1066.88 394.28 1068.8 390.04 1072.68 386.72C1076.56 383.4 1081 381.8 1086.04 381.8C1089.08 381.8 1091.84 382.32 1094.4 383.4C1096.92 384.48 1098.8 385.6 1100.04 386.84C1101.8 388.64 1103.24 390.84 1104.36 393.48C1105.12 395.32 1105.52 397.44 1105.52 399.88V403.04L1105.56 403.12ZM1097.32 395.68C1096.16 393.56 1094.68 391.96 1092.84 390.88C1091 389.8 1088.8 389.28 1086.24 389.28C1083.68 389.28 1081.52 389.8 1079.68 390.88C1077.84 391.92 1076.32 393.52 1075.16 395.68H1097.28H1097.32Z" fill="black"/>
</g>
<defs>
<clipPath id="clip0_144_205">
<rect width="1280" height="720" fill="white"/>
</clipPath>
</defs>
</svg>
