<?xml version="1.0" encoding="UTF-8"?><svg id="b" xmlns="http://www.w3.org/2000/svg" width="320" height="180" viewBox="0 0 320 180"><defs><style>.d,.e{stroke-width:0px;}.e{fill:#fff;}</style></defs><g id="c"><rect class="e" x="1" y="1" width="318" height="178"/><path class="d" d="m318,2v176H2V2h316m2-2H0v180h320V0h0Z"/><path class="d" d="m25.16,72.47v7.29h4.02v-1.76c0-.45.09-.77.26-.96.17-.19.4-.29.68-.29s.5.09.67.29c.17.19.26.51.26.96v3.63h-8.83c-.45,0-.77-.09-.96-.26-.19-.17-.29-.4-.29-.68s.1-.5.29-.67c.19-.17.51-.26.96-.26h1.08v-7.29h-1.08c-.45,0-.77-.09-.96-.26-.19-.17-.29-.4-.29-.68s.1-.5.29-.68c.19-.17.51-.26.96-.26h4.04c.45,0,.77.09.96.26.19.17.29.39.29.67s-.09.5-.29.68c-.19.17-.51.26-.96.26h-1.09Z"/><path class="d" d="m38.79,81.63v-.44c-.47.25-.98.43-1.54.56-.56.12-1.08.19-1.54.19-1,0-1.81-.26-2.44-.79s-.94-1.12-.94-1.76c0-.78.4-1.51,1.2-2.18.8-.67,1.9-1,3.3-1,.56,0,1.21.06,1.95.18v-.45c0-.28-.12-.51-.36-.68s-.7-.26-1.37-.26c-.55,0-1.27.11-2.14.33-.33.08-.58.12-.76.12-.25,0-.46-.09-.63-.27s-.26-.41-.26-.69c0-.16.03-.29.09-.41s.15-.21.25-.28c.11-.07.34-.15.68-.25.46-.13.93-.23,1.41-.3s.91-.11,1.3-.11c1.16,0,2.06.25,2.7.75.64.5.96,1.18.96,2.05v3.84h.32c.45,0,.77.09.96.26.19.17.29.4.29.68s-.1.5-.29.67c-.19.17-.51.26-.96.26h-2.18Zm0-3.34c-.75-.15-1.43-.22-2.06-.22-.76,0-1.41.19-1.95.55-.34.24-.51.48-.51.72,0,.18.08.32.25.43.3.2.72.3,1.25.3.45,0,.96-.09,1.52-.26s1.07-.42,1.51-.72v-.8Z"/><path class="d" d="m50.3,75.55c-.3-.19-.62-.33-.95-.42s-.68-.14-1.04-.14c-.72,0-1.29.12-1.72.35-.19.1-.28.21-.28.34,0,.14.13.28.38.41.19.1.63.19,1.3.28,1.24.17,2.1.34,2.58.51.64.22,1.13.56,1.47,1,.35.44.52.91.52,1.4,0,.67-.29,1.22-.88,1.67-.84.65-1.94.97-3.28.97-.54,0-1.04-.05-1.5-.14-.46-.09-.88-.23-1.26-.41-.09.08-.19.14-.29.18-.1.04-.21.06-.32.06-.29,0-.52-.09-.7-.29-.17-.19-.26-.51-.26-.96v-.63c0-.45.09-.77.26-.96.17-.19.4-.29.68-.29.22,0,.41.06.56.19.15.12.27.34.35.64.29.24.63.43,1.03.55s.86.19,1.38.19c.85,0,1.52-.13,1.99-.4.22-.13.34-.27.34-.42,0-.24-.16-.44-.48-.6-.32-.16-.98-.29-1.99-.4-1.5-.16-2.5-.46-3-.91-.5-.44-.75-.99-.75-1.64s.28-1.22.84-1.66c.76-.61,1.76-.91,3-.91.43,0,.84.04,1.24.12.4.08.78.21,1.14.38.12-.08.22-.15.32-.19.1-.04.19-.06.28-.06.25,0,.47.1.64.29.17.19.25.51.25.96v.46c0,.41-.05.68-.15.83-.19.28-.46.42-.79.42-.22,0-.42-.07-.59-.21-.17-.14-.28-.32-.33-.55Z"/><path class="d" d="m68.28,69.84v4.18c.45-.3.92-.52,1.39-.67s.94-.22,1.42-.22c1.29,0,2.38.45,3.28,1.34.9.89,1.35,1.97,1.35,3.23s-.43,2.21-1.28,3.02c-.85.81-1.98,1.21-3.38,1.21-.5,0-.98-.06-1.44-.19-.46-.13-.91-.31-1.34-.56v.46h-2.18c-.45,0-.77-.09-.96-.26-.19-.17-.29-.4-.29-.68s.1-.5.29-.67c.19-.17.51-.26.95-.26h.32v-8.06h-.32c-.45,0-.77-.09-.96-.26s-.29-.4-.29-.68.1-.5.29-.67.51-.26.96-.26h2.18Zm5.57,7.91c0-.77-.27-1.42-.81-1.95-.54-.53-1.2-.8-1.98-.8s-1.43.27-1.97.8c-.54.53-.81,1.18-.81,1.93,0,.69.24,1.25.73,1.69.48.44,1.17.66,2.05.66s1.57-.22,2.06-.66c.49-.44.73-.99.73-1.66Z"/><path class="d" d="m83.48,81.63v-.44c-.47.25-.98.43-1.54.56-.56.12-1.08.19-1.54.19-1,0-1.81-.26-2.44-.79s-.94-1.12-.94-1.76c0-.78.4-1.51,1.2-2.18.8-.67,1.9-1,3.3-1,.56,0,1.21.06,1.95.18v-.45c0-.28-.12-.51-.36-.68s-.7-.26-1.37-.26c-.55,0-1.27.11-2.14.33-.33.08-.58.12-.76.12-.25,0-.46-.09-.63-.27s-.26-.41-.26-.69c0-.16.03-.29.09-.41s.15-.21.25-.28c.11-.07.34-.15.68-.25.46-.13.93-.23,1.41-.3s.91-.11,1.3-.11c1.16,0,2.06.25,2.7.75.64.5.96,1.18.96,2.05v3.84h.32c.45,0,.77.09.96.26.19.17.29.4.29.68s-.1.5-.29.67c-.19.17-.51.26-.96.26h-2.18Zm0-3.34c-.75-.15-1.43-.22-2.06-.22-.76,0-1.41.19-1.95.55-.34.24-.51.48-.51.72,0,.18.08.32.25.43.3.2.72.3,1.25.3.45,0,.96-.09,1.52-.26s1.07-.42,1.51-.72v-.8Z"/><path class="d" d="m92.51,75.24v3.74c0,.4.08.66.25.79.25.2.71.3,1.36.3.95,0,1.83-.2,2.64-.61.31-.16.55-.24.73-.24.24,0,.45.09.63.27s.27.4.27.66c0,.24-.1.45-.29.63-.3.29-.88.55-1.76.79-.88.24-1.61.36-2.21.36-1.16,0-2.03-.25-2.6-.75-.58-.5-.87-1.11-.87-1.84v-4.1h-.67c-.45,0-.77-.09-.96-.26-.19-.17-.29-.4-.29-.68s.1-.5.29-.67c.19-.17.51-.26.96-.26h.67v-1.68c0-.45.09-.77.26-.96.17-.19.4-.29.68-.29s.5.09.67.29c.17.19.26.51.26.96v1.68h3.44c.45,0,.77.09.96.26.19.17.29.4.29.68s-.1.5-.29.67c-.19.17-.51.26-.96.26h-3.44Z"/><path class="d" d="m105.82,81.63v-.44c-.47.25-.98.43-1.54.56-.56.12-1.08.19-1.54.19-1,0-1.81-.26-2.44-.79s-.94-1.12-.94-1.76c0-.78.4-1.51,1.2-2.18.8-.67,1.9-1,3.3-1,.56,0,1.21.06,1.95.18v-.45c0-.28-.12-.51-.36-.68s-.7-.26-1.37-.26c-.55,0-1.27.11-2.15.33-.33.08-.58.12-.76.12-.25,0-.46-.09-.63-.27-.17-.18-.26-.41-.26-.69,0-.16.03-.29.09-.41s.15-.21.25-.28c.11-.07.34-.15.68-.25.46-.13.93-.23,1.41-.3.48-.08.91-.11,1.3-.11,1.16,0,2.06.25,2.7.75.64.5.96,1.18.96,2.05v3.84h.32c.45,0,.77.09.96.26.19.17.29.4.29.68s-.1.5-.29.67c-.19.17-.51.26-.96.26h-2.18Zm0-3.34c-.75-.15-1.43-.22-2.06-.22-.76,0-1.41.19-1.96.55-.34.24-.51.48-.51.72,0,.18.08.32.25.43.3.2.72.3,1.25.3.45,0,.96-.09,1.52-.26.57-.18,1.07-.42,1.51-.72v-.8Z"/><path class="d" d="m116.25,69.84v9.93h2.24c.45,0,.77.09.96.26.19.17.29.4.29.68s-.09.5-.29.67c-.19.17-.51.26-.96.26h-6.34c-.45,0-.77-.09-.96-.26-.19-.17-.29-.4-.29-.68s.1-.5.29-.67c.19-.17.51-.26.96-.26h2.24v-8.06h-1.5c-.44,0-.76-.09-.95-.26-.19-.17-.29-.4-.29-.68s.1-.5.29-.67c.19-.17.51-.26.96-.26h3.36Z"/><path class="d" d="m127.42,69.84v9.93h2.24c.45,0,.77.09.96.26.19.17.29.4.29.68s-.1.5-.29.67c-.19.17-.51.26-.96.26h-6.34c-.45,0-.77-.09-.96-.26-.19-.17-.29-.4-.29-.68s.09-.5.29-.67c.19-.17.51-.26.96-.26h2.24v-8.06h-1.5c-.44,0-.76-.09-.96-.26-.19-.17-.29-.4-.29-.68s.1-.5.29-.67c.19-.17.51-.26.96-.26h3.36Z"/><path class="d" d="m139.33,81.63v-.44c-.47.25-.98.43-1.54.56-.56.12-1.08.19-1.54.19-1,0-1.81-.26-2.44-.79s-.94-1.12-.94-1.76c0-.78.4-1.51,1.2-2.18.8-.67,1.9-1,3.3-1,.56,0,1.21.06,1.95.18v-.45c0-.28-.12-.51-.36-.68s-.7-.26-1.37-.26c-.55,0-1.27.11-2.14.33-.33.08-.58.12-.76.12-.25,0-.46-.09-.63-.27s-.26-.41-.26-.69c0-.16.03-.29.09-.41s.15-.21.25-.28c.11-.07.34-.15.68-.25.46-.13.93-.23,1.41-.3s.91-.11,1.3-.11c1.16,0,2.06.25,2.7.75.64.5.96,1.18.96,2.05v3.84h.32c.45,0,.77.09.96.26.19.17.29.4.29.68s-.1.5-.29.67c-.19.17-.51.26-.96.26h-2.18Zm0-3.34c-.75-.15-1.43-.22-2.06-.22-.76,0-1.41.19-1.95.55-.34.24-.51.48-.51.72,0,.18.08.32.25.43.3.2.72.3,1.25.3.45,0,.96-.09,1.52-.26s1.07-.42,1.51-.72v-.8Z"/><path class="d" d="m150.84,75.55c-.3-.19-.62-.33-.95-.42-.33-.09-.68-.14-1.05-.14-.72,0-1.29.12-1.72.35-.19.1-.28.21-.28.34,0,.14.13.28.38.41.19.1.63.19,1.3.28,1.24.17,2.1.34,2.58.51.64.22,1.13.56,1.47,1,.34.44.52.91.52,1.4,0,.67-.29,1.22-.88,1.67-.84.65-1.94.97-3.28.97-.54,0-1.04-.05-1.5-.14-.46-.09-.88-.23-1.26-.41-.09.08-.19.14-.29.18-.1.04-.21.06-.32.06-.29,0-.52-.09-.7-.29-.17-.19-.26-.51-.26-.96v-.63c0-.45.09-.77.26-.96.17-.19.4-.29.68-.29.22,0,.41.06.56.19.15.12.27.34.35.64.28.24.63.43,1.03.55.4.12.86.19,1.38.19.85,0,1.52-.13,1.99-.4.22-.13.34-.27.34-.42,0-.24-.16-.44-.48-.6-.32-.16-.99-.29-1.99-.4-1.5-.16-2.5-.46-3-.91-.5-.44-.75-.99-.75-1.64s.28-1.22.85-1.66c.76-.61,1.76-.91,3-.91.43,0,.84.04,1.24.12s.78.21,1.14.38c.12-.08.22-.15.32-.19.1-.04.19-.06.28-.06.25,0,.47.1.64.29.17.19.25.51.25.96v.46c0,.41-.05.68-.15.83-.19.28-.46.42-.79.42-.22,0-.42-.07-.59-.21s-.28-.32-.33-.55Z"/><path class="d" d="m175.45,69.84v9.93h.32c.44,0,.76.09.96.26.19.17.29.4.29.68s-.09.5-.29.67c-.19.17-.51.26-.96.26h-2.18v-.46c-.42.25-.87.44-1.33.56-.46.13-.94.19-1.44.19-1.4,0-2.53-.4-3.38-1.21-.85-.81-1.28-1.82-1.28-3.02s.45-2.34,1.35-3.23c.9-.89,1.99-1.34,3.28-1.34.48,0,.96.07,1.43.22s.93.37,1.38.67v-2.32h-.32c-.45,0-.77-.09-.96-.26-.19-.17-.29-.4-.29-.67s.1-.5.29-.68c.19-.17.51-.26.96-.26h2.18Zm-1.86,7.91c0-.77-.27-1.42-.81-1.95-.54-.53-1.2-.8-1.98-.8s-1.43.27-1.97.8c-.54.53-.81,1.18-.81,1.93,0,.69.24,1.25.73,1.69.48.44,1.17.66,2.05.66s1.56-.22,2.05-.66c.49-.44.74-.99.74-1.66Z"/><path class="d" d="m187.02,78.44h-7.64c.19.48.54.88,1.03,1.17s1.16.45,2,.45c.69,0,1.61-.15,2.75-.45.47-.12.8-.18.98-.18.25,0,.46.09.63.26.17.18.25.4.25.66,0,.24-.09.45-.27.62-.24.22-.83.44-1.77.64s-1.84.3-2.71.3c-1.49,0-2.68-.42-3.58-1.26-.89-.84-1.34-1.88-1.34-3.11,0-1.31.48-2.37,1.45-3.2s2.08-1.23,3.34-1.23c.76,0,1.45.13,2.09.4.63.27,1.1.55,1.41.86.44.45.8,1,1.08,1.66.19.46.29.99.29,1.6v.79Zm-2.06-1.86c-.29-.53-.66-.93-1.12-1.2s-1.01-.4-1.65-.4-1.18.13-1.64.4c-.46.26-.84.66-1.13,1.2h5.53Z"/><path class="d" d="m206.7,75.55c-.3-.19-.62-.33-.96-.42s-.68-.14-1.04-.14c-.72,0-1.29.12-1.72.35-.19.1-.28.21-.28.34,0,.14.13.28.38.41.19.1.63.19,1.3.28,1.24.17,2.1.34,2.58.51.64.22,1.13.56,1.47,1,.35.44.52.91.52,1.4,0,.67-.29,1.22-.88,1.67-.84.65-1.94.97-3.28.97-.54,0-1.04-.05-1.5-.14-.46-.09-.88-.23-1.26-.41-.09.08-.19.14-.29.18-.1.04-.21.06-.32.06-.29,0-.52-.09-.7-.29-.17-.19-.26-.51-.26-.96v-.63c0-.45.09-.77.26-.96.17-.19.4-.29.68-.29.22,0,.41.06.56.19.15.12.27.34.35.64.29.24.63.43,1.03.55.4.12.86.19,1.38.19.85,0,1.52-.13,1.99-.4.22-.13.34-.27.34-.42,0-.24-.16-.44-.48-.6-.32-.16-.99-.29-1.99-.4-1.5-.16-2.5-.46-3-.91-.5-.44-.75-.99-.75-1.64s.28-1.22.85-1.66c.76-.61,1.76-.91,3-.91.43,0,.84.04,1.24.12.4.08.78.21,1.14.38.12-.08.22-.15.32-.19.1-.04.19-.06.28-.06.25,0,.47.1.64.29.17.19.25.51.25.96v.46c0,.41-.05.68-.15.83-.19.28-.46.42-.79.42-.22,0-.42-.07-.59-.21-.17-.14-.28-.32-.33-.55Z"/><path class="d" d="m220.54,78.44h-7.64c.19.48.54.88,1.03,1.17s1.16.45,2,.45c.69,0,1.61-.15,2.75-.45.47-.12.8-.18.98-.18.25,0,.46.09.63.26.17.18.25.4.25.66,0,.24-.09.45-.27.62-.24.22-.83.44-1.77.64s-1.84.3-2.71.3c-1.49,0-2.68-.42-3.58-1.26-.89-.84-1.34-1.88-1.34-3.11,0-1.31.48-2.37,1.45-3.2s2.08-1.23,3.34-1.23c.76,0,1.45.13,2.09.4.63.27,1.1.55,1.41.86.44.45.8,1,1.08,1.66.19.46.29.99.29,1.6v.79Zm-2.06-1.86c-.29-.53-.66-.93-1.12-1.2s-1.01-.4-1.65-.4-1.18.13-1.64.4c-.46.26-.84.66-1.13,1.2h5.53Z"/><path class="d" d="m226.64,73.37v1.16c.78-.56,1.4-.94,1.85-1.13.45-.19.88-.28,1.27-.28.61,0,1.19.22,1.76.67.39.3.58.61.58.93,0,.27-.09.49-.28.68s-.41.28-.67.28c-.23,0-.47-.12-.73-.35-.25-.23-.48-.34-.68-.34-.26,0-.65.16-1.17.49-.52.33-1.17.82-1.94,1.47v2.81h2.65c.45,0,.77.09.96.26.19.17.29.4.29.68s-.09.5-.29.67c-.19.17-.51.26-.96.26h-5.63c-.45,0-.77-.09-.96-.26-.19-.17-.29-.4-.29-.68s.1-.5.29-.67c.19-.17.51-.26.96-.26h1.11v-4.53h-.67c-.45,0-.77-.09-.96-.26-.19-.17-.29-.4-.29-.68s.1-.5.29-.67c.19-.17.51-.26.96-.26h2.54Z"/><path class="d" d="m246.5,73.37v.53c.3-.3.58-.5.82-.61.25-.11.53-.17.85-.17.27,0,.54.07.81.2.27.13.53.33.78.6.32-.27.65-.46.98-.59.33-.13.67-.2,1.01-.2.69,0,1.25.18,1.68.55.57.49.85,1.12.85,1.91v4.17c.39,0,.68.09.86.26s.28.4.28.67-.09.5-.28.67c-.19.17-.51.26-.95.26h-1.77v-5.88c0-.28-.05-.48-.15-.59-.1-.11-.26-.16-.47-.16s-.4.05-.57.16c-.22.15-.5.44-.82.85v3.75c.39,0,.68.09.86.26.19.18.28.4.28.67s-.09.5-.28.67c-.19.17-.51.26-.96.26h-1.77v-5.88c0-.28-.05-.47-.16-.59-.11-.11-.26-.17-.48-.17s-.43.07-.65.2c-.21.14-.47.41-.76.81v3.75c.39,0,.68.09.87.26.19.18.29.4.29.67s-.1.5-.29.67c-.19.17-.51.26-.96.26h-1.68c-.45,0-.77-.09-.96-.26-.19-.17-.29-.4-.29-.68s.09-.5.28-.67.48-.26.87-.26v-4.53c-.39,0-.69-.09-.87-.26s-.28-.4-.28-.67.09-.5.29-.67c.19-.17.51-.26.96-.26h1.77Z"/><path class="d" d="m262.22,81.63v-.44c-.47.25-.98.43-1.54.56-.56.12-1.08.19-1.54.19-1,0-1.81-.26-2.44-.79s-.94-1.12-.94-1.76c0-.78.4-1.51,1.2-2.18.8-.67,1.9-1,3.3-1,.56,0,1.21.06,1.95.18v-.45c0-.28-.12-.51-.36-.68-.24-.18-.7-.26-1.37-.26-.55,0-1.27.11-2.15.33-.33.08-.58.12-.76.12-.25,0-.46-.09-.63-.27s-.26-.41-.26-.69c0-.16.03-.29.09-.41s.15-.21.25-.28c.11-.07.34-.15.68-.25.46-.13.93-.23,1.41-.3.48-.08.91-.11,1.3-.11,1.16,0,2.06.25,2.69.75.64.5.96,1.18.96,2.05v3.84h.32c.45,0,.77.09.96.26.19.17.29.4.29.68s-.09.5-.29.67c-.19.17-.51.26-.96.26h-2.18Zm0-3.34c-.75-.15-1.43-.22-2.06-.22-.76,0-1.41.19-1.95.55-.34.24-.51.48-.51.72,0,.18.08.32.25.43.3.2.72.3,1.25.3.45,0,.96-.09,1.52-.26.57-.18,1.07-.42,1.51-.72v-.8Z"/><path class="d" d="m275.99,69.84v9.93h.32c.44,0,.76.09.96.26.19.17.29.4.29.68s-.09.5-.29.67c-.19.17-.51.26-.96.26h-2.18v-.46c-.42.25-.87.44-1.33.56-.46.13-.94.19-1.44.19-1.4,0-2.53-.4-3.38-1.21-.85-.81-1.28-1.82-1.28-3.02s.45-2.34,1.35-3.23c.9-.89,1.99-1.34,3.28-1.34.48,0,.96.07,1.43.22s.93.37,1.38.67v-2.32h-.32c-.45,0-.77-.09-.96-.26-.19-.17-.29-.4-.29-.67s.1-.5.29-.68c.19-.17.51-.26.96-.26h2.18Zm-1.86,7.91c0-.77-.27-1.42-.81-1.95-.54-.53-1.2-.8-1.98-.8s-1.43.27-1.97.8c-.54.53-.81,1.18-.81,1.93,0,.69.24,1.25.73,1.69.48.44,1.17.66,2.05.66s1.56-.22,2.05-.66c.49-.44.74-.99.74-1.66Z"/><path class="d" d="m282.5,73.37v1.16c.78-.56,1.4-.94,1.85-1.13.45-.19.88-.28,1.27-.28.61,0,1.19.22,1.76.67.39.3.58.61.58.93,0,.27-.09.49-.28.68s-.41.28-.67.28c-.23,0-.47-.12-.73-.35-.25-.23-.48-.34-.68-.34-.26,0-.65.16-1.17.49-.52.33-1.17.82-1.94,1.47v2.81h2.65c.45,0,.77.09.96.26.19.17.29.4.29.68s-.09.5-.29.67c-.19.17-.51.26-.96.26h-5.63c-.45,0-.77-.09-.96-.26-.19-.17-.29-.4-.29-.68s.1-.5.29-.67c.19-.17.51-.26.96-.26h1.11v-4.53h-.67c-.45,0-.77-.09-.96-.26-.19-.17-.29-.4-.29-.68s.1-.5.29-.67c.19-.17.51-.26.96-.26h2.54Z"/><path class="d" d="m298.74,78.44h-7.64c.19.48.54.88,1.03,1.17s1.16.45,2,.45c.69,0,1.61-.15,2.75-.45.47-.12.8-.18.98-.18.25,0,.46.09.63.26.17.18.25.4.25.66,0,.24-.09.45-.27.62-.24.22-.83.44-1.77.64s-1.84.3-2.71.3c-1.49,0-2.68-.42-3.58-1.26-.89-.84-1.34-1.88-1.34-3.11,0-1.31.48-2.37,1.45-3.2s2.08-1.23,3.34-1.23c.76,0,1.45.13,2.09.4.63.27,1.1.55,1.41.86.44.45.8,1,1.08,1.66.19.46.29.99.29,1.6v.79Zm-2.06-1.86c-.29-.53-.66-.93-1.12-1.2s-1.01-.4-1.65-.4-1.18.13-1.64.4c-.46.26-.84.66-1.13,1.2h5.53Z"/><path class="d" d="m49.96,103.97v-.44c-.47.25-.98.44-1.54.56-.56.12-1.08.19-1.54.19-1,0-1.81-.26-2.44-.79s-.94-1.12-.94-1.76c0-.78.4-1.51,1.2-2.18.8-.67,1.9-1,3.3-1,.56,0,1.21.06,1.95.18v-.45c0-.28-.12-.51-.36-.68s-.7-.26-1.37-.26c-.55,0-1.27.11-2.14.33-.33.08-.58.12-.76.12-.25,0-.46-.09-.63-.27s-.26-.41-.26-.69c0-.16.03-.29.09-.41s.15-.21.25-.28c.11-.07.34-.15.68-.25.46-.13.93-.23,1.41-.3s.91-.11,1.3-.11c1.16,0,2.06.25,2.7.75.64.5.96,1.18.96,2.05v3.84h.32c.45,0,.77.09.96.26.19.17.29.4.29.68s-.1.5-.29.67c-.19.17-.51.26-.96.26h-2.18Zm0-3.34c-.75-.15-1.43-.22-2.06-.22-.76,0-1.41.18-1.95.55-.34.24-.51.48-.51.72,0,.18.08.32.25.43.3.2.72.3,1.25.3.45,0,.96-.09,1.52-.26s1.07-.42,1.51-.72v-.8Z"/><path class="d" d="m60.39,92.18v9.93h2.24c.45,0,.77.09.96.26.19.17.29.4.29.68s-.09.5-.29.67c-.19.17-.51.26-.96.26h-6.34c-.45,0-.77-.09-.96-.26-.19-.17-.29-.4-.29-.68s.1-.5.29-.67c.19-.17.51-.26.96-.26h2.24v-8.06h-1.5c-.44,0-.76-.09-.95-.26-.19-.17-.29-.4-.29-.68s.1-.5.29-.67c.19-.17.51-.26.96-.26h3.36Z"/><path class="d" d="m82.73,92.18v9.93h2.24c.45,0,.77.09.96.26.19.17.29.4.29.68s-.1.5-.29.67c-.19.17-.51.26-.96.26h-6.34c-.45,0-.77-.09-.96-.26-.19-.17-.29-.4-.29-.68s.09-.5.29-.67c.19-.17.51-.26.96-.26h2.24v-8.06h-1.5c-.44,0-.76-.09-.96-.26-.19-.17-.29-.4-.29-.68s.1-.5.29-.67c.19-.17.51-.26.96-.26h3.36Z"/><path class="d" d="m94.65,103.97v-.44c-.47.25-.98.44-1.54.56-.56.12-1.08.19-1.54.19-1,0-1.81-.26-2.44-.79s-.94-1.12-.94-1.76c0-.78.4-1.51,1.2-2.18.8-.67,1.9-1,3.3-1,.56,0,1.21.06,1.95.18v-.45c0-.28-.12-.51-.36-.68s-.7-.26-1.37-.26c-.55,0-1.27.11-2.14.33-.33.08-.58.12-.76.12-.25,0-.46-.09-.63-.27s-.26-.41-.26-.69c0-.16.03-.29.09-.41s.15-.21.25-.28c.11-.07.34-.15.68-.25.46-.13.93-.23,1.41-.3s.91-.11,1.3-.11c1.16,0,2.06.25,2.7.75.64.5.96,1.18.96,2.05v3.84h.32c.45,0,.77.09.96.26.19.17.29.4.29.68s-.1.5-.29.67c-.19.17-.51.26-.96.26h-2.18Zm0-3.34c-.75-.15-1.43-.22-2.06-.22-.76,0-1.41.18-1.95.55-.34.24-.51.48-.51.72,0,.18.08.32.25.43.3.2.72.3,1.25.3.45,0,.96-.09,1.52-.26s1.07-.42,1.51-.72v-.8Z"/><path class="d" d="m108.42,92.18v9.93h.32c.44,0,.76.09.96.26.19.17.29.4.29.68s-.1.5-.29.67c-.19.17-.51.26-.96.26h-2.18v-.45c-.42.25-.87.44-1.33.56-.46.13-.94.19-1.44.19-1.4,0-2.53-.4-3.38-1.21-.85-.81-1.28-1.82-1.28-3.02s.45-2.34,1.35-3.23,1.99-1.34,3.28-1.34c.49,0,.96.07,1.43.22.47.15.93.37,1.38.67v-2.32h-.32c-.45,0-.77-.09-.96-.26-.19-.17-.29-.4-.29-.67s.1-.5.29-.68c.19-.17.51-.26.96-.26h2.18Zm-1.86,7.91c0-.77-.27-1.42-.81-1.95s-1.2-.8-1.98-.8-1.43.27-1.97.8-.81,1.18-.81,1.93c0,.69.24,1.25.73,1.69.49.44,1.17.66,2.05.66s1.56-.22,2.05-.66c.49-.44.74-.99.74-1.66Z"/><path class="d" d="m120.15,99.99c0,.72-.2,1.41-.6,2.08-.4.67-.99,1.2-1.77,1.6-.79.4-1.6.6-2.46.6s-1.66-.2-2.44-.59c-.78-.39-1.37-.92-1.77-1.6-.41-.67-.61-1.38-.61-2.11s.21-1.48.62-2.2c.41-.72,1-1.28,1.78-1.7.77-.41,1.58-.62,2.42-.62s1.67.21,2.45.63c.78.42,1.38.99,1.78,1.7.4.71.6,1.44.6,2.2Zm-1.86,0c0-.6-.22-1.15-.65-1.65-.59-.68-1.36-1.02-2.32-1.02-.84,0-1.54.27-2.11.81-.56.54-.85,1.16-.85,1.87,0,.58.29,1.13.85,1.63s1.27.76,2.1.76,1.54-.25,2.11-.76c.57-.51.85-1.05.85-1.64Z"/><path class="d" d="m141.93,92.18v9.93h.32c.44,0,.76.09.95.26.19.17.29.4.29.68s-.1.5-.29.67c-.19.17-.51.26-.96.26h-2.18v-.45c-.42.25-.87.44-1.33.56-.46.13-.94.19-1.44.19-1.4,0-2.53-.4-3.38-1.21-.85-.81-1.28-1.82-1.28-3.02s.45-2.34,1.34-3.23c.9-.89,1.99-1.34,3.28-1.34.48,0,.96.07,1.43.22s.93.37,1.38.67v-2.32h-.32c-.45,0-.77-.09-.96-.26-.19-.17-.29-.4-.29-.67s.1-.5.29-.68c.19-.17.51-.26.96-.26h2.18Zm-1.86,7.91c0-.77-.27-1.42-.81-1.95-.54-.53-1.2-.8-1.98-.8s-1.43.27-1.97.8c-.54.53-.81,1.18-.81,1.93,0,.69.24,1.25.73,1.69.48.44,1.17.66,2.05.66s1.56-.22,2.05-.66.74-.99.74-1.66Z"/><path class="d" d="m153.5,100.78h-7.64c.19.49.54.88,1.03,1.17.49.3,1.16.45,2,.45.69,0,1.61-.15,2.75-.45.47-.12.8-.18.98-.18.25,0,.46.09.63.26s.25.4.25.66c0,.24-.09.45-.27.62-.24.22-.83.44-1.77.64-.94.2-1.84.3-2.71.3-1.49,0-2.68-.42-3.58-1.26-.89-.84-1.34-1.88-1.34-3.11,0-1.31.48-2.37,1.45-3.2s2.08-1.23,3.34-1.23c.76,0,1.45.13,2.09.4.63.27,1.1.55,1.41.86.44.45.8,1,1.08,1.66.19.46.29.99.29,1.6v.79Zm-2.06-1.86c-.29-.53-.66-.93-1.12-1.2-.46-.26-1.01-.4-1.64-.4s-1.18.13-1.64.4-.84.66-1.13,1.2h5.53Z"/><path class="d" d="m176.01,99.99c0,.72-.2,1.41-.59,2.08-.4.67-.99,1.2-1.77,1.6-.79.4-1.6.6-2.46.6s-1.66-.2-2.44-.59-1.37-.92-1.77-1.6-.61-1.38-.61-2.11.21-1.48.62-2.2c.41-.72,1-1.28,1.78-1.7s1.58-.62,2.42-.62,1.67.21,2.45.63c.79.42,1.38.99,1.78,1.7.4.71.6,1.44.6,2.2Zm-1.86,0c0-.6-.21-1.15-.65-1.65-.59-.68-1.36-1.02-2.32-1.02-.84,0-1.55.27-2.11.81-.56.54-.84,1.16-.84,1.87,0,.58.28,1.13.85,1.63.57.51,1.27.76,2.1.76s1.54-.25,2.11-.76c.57-.51.85-1.05.85-1.64Z"/><path class="d" d="m181.88,97.58v3.74c0,.4.08.66.25.79.25.2.71.3,1.36.3.95,0,1.83-.2,2.64-.61.31-.16.55-.24.73-.24.24,0,.45.09.63.27.18.18.27.4.27.66,0,.24-.1.45-.29.63-.3.29-.88.55-1.76.79-.88.24-1.61.36-2.21.36-1.16,0-2.03-.25-2.6-.75-.58-.5-.87-1.11-.87-1.84v-4.1h-.67c-.45,0-.77-.09-.96-.26-.19-.17-.29-.4-.29-.68s.09-.5.29-.67c.19-.17.51-.26.96-.26h.67v-1.68c0-.45.09-.77.26-.96.17-.19.4-.29.68-.29s.5.09.67.29c.17.19.26.51.26.96v1.68h3.45c.45,0,.77.09.96.26.19.17.29.4.29.68s-.1.5-.29.67c-.19.17-.51.26-.96.26h-3.45Z"/><path class="d" d="m193.13,95.71v1.16c.78-.56,1.4-.94,1.85-1.13.45-.19.88-.28,1.27-.28.61,0,1.19.22,1.76.67.39.3.58.61.58.93,0,.27-.09.49-.28.68s-.41.28-.67.28c-.23,0-.47-.12-.73-.35-.25-.23-.48-.34-.68-.34-.26,0-.65.16-1.17.49-.52.33-1.17.82-1.94,1.47v2.81h2.65c.45,0,.77.09.96.26.19.17.29.4.29.68s-.09.5-.29.67c-.19.17-.51.26-.96.26h-5.63c-.45,0-.77-.09-.96-.26-.19-.17-.29-.4-.29-.68s.1-.5.29-.67c.19-.17.51-.26.96-.26h1.11v-4.53h-.67c-.45,0-.77-.09-.96-.26-.19-.17-.29-.4-.29-.68s.1-.5.29-.67c.19-.17.51-.26.96-.26h2.54Z"/><path class="d" d="m206.36,103.97v-.44c-.47.25-.98.44-1.54.56s-1.08.19-1.54.19c-1,0-1.81-.26-2.44-.79s-.94-1.12-.94-1.76c0-.78.4-1.51,1.2-2.18.8-.67,1.9-1,3.3-1,.56,0,1.21.06,1.95.18v-.45c0-.28-.12-.51-.36-.68-.24-.18-.7-.26-1.37-.26-.55,0-1.27.11-2.15.33-.33.08-.58.12-.76.12-.25,0-.46-.09-.63-.27s-.26-.41-.26-.69c0-.16.03-.29.09-.41s.15-.21.25-.28c.11-.07.34-.15.68-.25.46-.13.93-.23,1.41-.3.48-.08.91-.11,1.3-.11,1.16,0,2.06.25,2.69.75.64.5.96,1.18.96,2.05v3.84h.32c.45,0,.77.09.96.26.19.17.29.4.29.68s-.09.5-.29.67c-.19.17-.51.26-.96.26h-2.18Zm0-3.34c-.75-.15-1.43-.22-2.06-.22-.76,0-1.41.18-1.95.55-.34.24-.51.48-.51.72,0,.18.08.32.25.43.3.2.72.3,1.25.3.45,0,.96-.09,1.52-.26.57-.18,1.07-.42,1.51-.72v-.8Z"/><path class="d" d="m224.15,95.71v.53c.3-.3.58-.5.82-.61.25-.11.53-.17.85-.17.27,0,.54.07.81.2.27.13.53.33.78.6.32-.27.65-.46.98-.59.33-.13.67-.2,1.01-.2.69,0,1.25.18,1.68.55.57.49.85,1.12.85,1.91v4.17c.39,0,.68.09.86.26s.28.4.28.67-.09.5-.28.67-.51.26-.95.26h-1.77v-5.88c0-.28-.05-.48-.15-.59-.1-.11-.26-.16-.47-.16s-.4.05-.57.16c-.22.15-.5.44-.82.86v3.75c.39,0,.68.09.86.26.19.18.28.4.28.67s-.09.5-.28.67c-.19.17-.51.26-.96.26h-1.77v-5.88c0-.28-.05-.47-.16-.59-.11-.11-.26-.17-.48-.17s-.43.07-.65.2c-.21.14-.47.41-.76.81v3.75c.39,0,.68.09.87.26.19.18.29.4.29.67s-.1.5-.29.67c-.19.17-.51.26-.96.26h-1.68c-.45,0-.77-.09-.96-.26-.19-.17-.29-.4-.29-.68s.09-.5.28-.67.48-.26.87-.26v-4.53c-.39,0-.69-.09-.87-.26s-.28-.4-.28-.67.09-.5.29-.67c.19-.17.51-.26.96-.26h1.77Z"/><path class="d" d="m239.88,103.97v-.44c-.47.25-.98.44-1.54.56s-1.08.19-1.54.19c-1,0-1.81-.26-2.44-.79s-.94-1.12-.94-1.76c0-.78.4-1.51,1.2-2.18.8-.67,1.9-1,3.3-1,.56,0,1.21.06,1.95.18v-.45c0-.28-.12-.51-.36-.68-.24-.18-.7-.26-1.37-.26-.55,0-1.27.11-2.15.33-.33.08-.58.12-.76.12-.25,0-.46-.09-.63-.27s-.26-.41-.26-.69c0-.16.03-.29.09-.41s.15-.21.25-.28c.11-.07.34-.15.68-.25.46-.13.93-.23,1.41-.3.48-.08.91-.11,1.3-.11,1.16,0,2.06.25,2.69.75.64.5.96,1.18.96,2.05v3.84h.32c.45,0,.77.09.96.26.19.17.29.4.29.68s-.09.5-.29.67c-.19.17-.51.26-.96.26h-2.18Zm0-3.34c-.75-.15-1.43-.22-2.06-.22-.76,0-1.41.18-1.95.55-.34.24-.51.48-.51.72,0,.18.08.32.25.43.3.2.72.3,1.25.3.45,0,.96-.09,1.52-.26.57-.18,1.07-.42,1.51-.72v-.8Z"/><path class="d" d="m253.65,92.18v9.93h.32c.44,0,.76.09.96.26.19.17.29.4.29.68s-.09.5-.29.67c-.19.17-.51.26-.96.26h-2.18v-.45c-.42.25-.87.44-1.33.56-.46.13-.94.19-1.44.19-1.4,0-2.53-.4-3.38-1.21-.85-.81-1.28-1.82-1.28-3.02s.45-2.34,1.35-3.23c.9-.89,1.99-1.34,3.28-1.34.48,0,.96.07,1.43.22s.93.37,1.38.67v-2.32h-.32c-.45,0-.77-.09-.96-.26-.19-.17-.29-.4-.29-.67s.1-.5.29-.68c.19-.17.51-.26.96-.26h2.18Zm-1.86,7.91c0-.77-.27-1.42-.81-1.95-.54-.53-1.2-.8-1.98-.8s-1.43.27-1.97.8c-.54.53-.81,1.18-.81,1.93,0,.69.24,1.25.73,1.69.48.44,1.17.66,2.05.66s1.56-.22,2.05-.66c.49-.44.74-.99.74-1.66Z"/><path class="d" d="m260.16,95.71v1.16c.78-.56,1.4-.94,1.85-1.13.45-.19.88-.28,1.27-.28.61,0,1.19.22,1.76.67.39.3.58.61.58.93,0,.27-.09.49-.28.68s-.41.28-.67.28c-.23,0-.47-.12-.73-.35-.25-.23-.48-.34-.68-.34-.26,0-.65.16-1.17.49-.52.33-1.17.82-1.94,1.47v2.81h2.65c.45,0,.77.09.96.26.19.17.29.4.29.68s-.09.5-.29.67c-.19.17-.51.26-.96.26h-5.63c-.45,0-.77-.09-.96-.26-.19-.17-.29-.4-.29-.68s.1-.5.29-.67c.19-.17.51-.26.96-.26h1.11v-4.53h-.67c-.45,0-.77-.09-.96-.26-.19-.17-.29-.4-.29-.68s.1-.5.29-.67c.19-.17.51-.26.96-.26h2.54Z"/><path class="d" d="m276.39,100.78h-7.64c.19.49.54.88,1.03,1.17s1.16.45,2,.45c.69,0,1.61-.15,2.75-.45.47-.12.8-.18.98-.18.25,0,.46.09.63.26.17.18.25.4.25.66,0,.24-.09.45-.27.62-.24.22-.83.44-1.77.64-.94.2-1.84.3-2.71.3-1.49,0-2.68-.42-3.58-1.26-.89-.84-1.34-1.88-1.34-3.11,0-1.31.48-2.37,1.45-3.2s2.08-1.23,3.34-1.23c.76,0,1.45.13,2.09.4.63.27,1.1.55,1.41.86.44.45.8,1,1.08,1.66.19.46.29.99.29,1.6v.79Zm-2.06-1.86c-.29-.53-.66-.93-1.12-1.2s-1.01-.4-1.65-.4-1.18.13-1.64.4c-.46.26-.84.66-1.13,1.2h5.53Z"/></g></svg>