<?xml version="1.0" encoding="UTF-8"?><svg xmlns="http://www.w3.org/2000/svg" width="320" height="180" viewBox="0 0 320 180"><defs><style>.d{isolation:isolate;}.e,.f{stroke-width:0px;}.f{fill:#fff;}.g{mix-blend-mode:multiply;}</style></defs><g class="d"><g id="b"><g id="c"><g class="g"><rect class="f" x="1" y="1" width="318" height="178"/><path class="e" d="m318,2v176H2V2h316m2-2H0v180h320V0h0Z"/></g><path class="e" d="m118.74,79.08v13.01h7.17v-3.15c0-.8.15-1.37.46-1.71s.71-.51,1.21-.51.88.17,1.19.51.46.91.46,1.71v6.47h-15.75c-.8,0-1.37-.15-1.71-.46-.34-.31-.51-.71-.51-1.21s.17-.88.51-1.19c.34-.31.91-.46,1.71-.46h1.93v-13.01h-1.93c-.8,0-1.37-.15-1.71-.46-.34-.31-.51-.71-.51-1.21s.17-.9.51-1.21c.34-.31.91-.46,1.71-.46l7.2.02c.8,0,1.37.15,1.71.45.34.3.51.7.51,1.2s-.17.9-.51,1.21c-.34.31-.91.46-1.71.46h-1.95Z"/><path class="e" d="m148.41,89.74h-13.64c.35.87.96,1.56,1.84,2.09.88.53,2.07.79,3.58.79,1.23,0,2.87-.26,4.92-.79.84-.22,1.43-.32,1.75-.32.44,0,.82.16,1.12.47s.45.71.45,1.18c0,.43-.16.8-.49,1.1-.43.4-1.49.78-3.16,1.14s-3.29.54-4.83.54c-2.66,0-4.79-.75-6.38-2.25-1.6-1.5-2.39-3.35-2.39-5.55,0-2.34.86-4.24,2.59-5.7,1.72-1.47,3.71-2.2,5.96-2.2,1.35,0,2.59.24,3.72.71,1.13.48,1.97.99,2.52,1.54.78.8,1.42,1.79,1.93,2.97.35.82.52,1.77.52,2.86v1.41Zm-3.68-3.33c-.51-.95-1.17-1.66-2-2.13-.82-.47-1.8-.71-2.94-.71s-2.1.24-2.92.71c-.82.47-1.49,1.18-2.01,2.13h9.86Z"/><path class="e" d="m165.18,81.29c.4-.38.81-.57,1.23-.57.48,0,.87.17,1.18.51.31.34.46.91.46,1.69v2.14c0,.8-.15,1.37-.46,1.7-.31.34-.71.5-1.21.5-.45,0-.84-.13-1.15-.39-.23-.19-.41-.59-.54-1.19s-.44-1.05-.94-1.34c-.88-.52-2-.78-3.36-.78-1.57,0-2.83.46-3.77,1.38-.95.92-1.42,2.08-1.42,3.49,0,1.3.45,2.32,1.36,3.07.91.75,2.42,1.13,4.53,1.13,1.38,0,2.51-.14,3.39-.42.52-.17,1.01-.47,1.48-.88.46-.42.89-.62,1.27-.62.45,0,.85.17,1.18.5s.5.73.5,1.18c0,.74-.5,1.43-1.51,2.09-1.49.98-3.68,1.48-6.55,1.48-2.58,0-4.6-.54-6.03-1.61-1.95-1.44-2.92-3.41-2.92-5.91,0-2.37.79-4.33,2.37-5.88,1.58-1.55,3.64-2.33,6.18-2.33.92,0,1.77.09,2.56.26.79.17,1.52.43,2.19.78Z"/><path class="e" d="m176.5,74.38v7.09c.69-.41,1.39-.72,2.1-.92.71-.2,1.42-.3,2.15-.3,1.15,0,2.17.19,3.07.58.9.39,1.64,1,2.23,1.84.59.84.88,1.9.88,3.17v6.25c.84,0,1.4.08,1.66.24.52.33.78.81.78,1.43,0,.49-.17.88-.5,1.19-.33.31-.9.46-1.7.46h-3.8c-.79,0-1.35-.15-1.7-.46-.34-.31-.51-.71-.51-1.21,0-.61.26-1.08.78-1.41.27-.17.82-.25,1.66-.24v-6.02c0-.85-.2-1.45-.58-1.8-.51-.46-1.26-.7-2.25-.7-.74,0-1.39.14-1.96.43-.57.29-1.33.91-2.3,1.86v6.23c.85,0,1.41.08,1.66.24.53.33.79.81.79,1.43,0,.49-.17.88-.51,1.19-.34.31-.91.46-1.71.46h-3.78c-.8,0-1.37-.15-1.71-.46-.34-.31-.51-.71-.51-1.21,0-.61.26-1.08.79-1.41.26-.17.81-.25,1.65-.24v-14.39h-.57c-.8,0-1.37-.15-1.71-.46-.34-.31-.51-.71-.51-1.21s.17-.88.51-1.19c.34-.31.91-.46,1.71-.46h3.89Z"/><path class="e" d="m208.22,89.74h-13.64c.35.87.96,1.56,1.84,2.09.88.53,2.07.79,3.58.79,1.23,0,2.87-.26,4.92-.79.84-.22,1.43-.32,1.75-.32.44,0,.82.16,1.12.47s.45.71.45,1.18c0,.43-.16.8-.49,1.1-.43.4-1.49.78-3.16,1.14-1.68.36-3.29.54-4.83.54-2.66,0-4.79-.75-6.38-2.25-1.6-1.5-2.39-3.35-2.39-5.55,0-2.34.86-4.24,2.59-5.7,1.72-1.47,3.71-2.2,5.96-2.2,1.35,0,2.59.24,3.72.71,1.13.48,1.97.99,2.52,1.54.78.8,1.42,1.79,1.93,2.97.35.82.52,1.77.52,2.86v1.41Zm-3.68-3.33c-.51-.95-1.17-1.66-2-2.13-.82-.47-1.8-.71-2.94-.71s-2.1.24-2.92.71c-.82.47-1.49,1.18-2.01,2.13h9.86Z"/></g></g></g></svg>