<?xml version="1.0" encoding="UTF-8"?><svg id="b" xmlns="http://www.w3.org/2000/svg" width="31.16" height="40" viewBox="0 0 31.16 40"><defs><style>.e{fill:#c13b2c;stroke-width:0px;}</style></defs><g id="c"><path id="d" class="e" d="m5.03,25.32c.81,4.05,4.91,8.11,3.23,12.34-1.42,3.12-6.4,3.12-7.83,0-1.69-5.8,3.29-11.7,2.94-17.65C3.48,14.68.17,9.63,0,4.41-.1,1.65,1.45.11,3.78.02c4.58.16,13.69-.48,17.79.89,14.13,3.43,12.08,20.89-2.4,21.25-2.34.25-4.83.37-7.46.37-2.04.19-7.8-1.05-6.68,2.8Zm6.68-3.6c11.65,0,17.48-2.65,17.48-7.94,0-2.51-1.46-4.35-4.37-5.51-2.91-1.16-7.28-1.74-13.11-1.74-2.19-.22-4.78.29-5.43,2.74-.64,3.27-3.26,8.73-1.31,11.65,1.13,1.35,5.21.63,6.74.8Z"/></g></svg>