<?xml version="1.0" encoding="UTF-8"?><svg id="b" xmlns="http://www.w3.org/2000/svg" width="276.92" height="40" viewBox="0 0 276.92 40"><defs><style>.e{fill:#fff1af;stroke-width:0px;}</style></defs><g id="c"><g id="d"><path class="e" d="m4.88,25.1c.79,3.93,4.76,7.86,3.13,11.95-1.38,3.02-6.2,3.02-7.58,0-1.64-5.62,3.19-11.33,2.85-17.1C3.37,14.79.16,9.89,0,4.84-.09,2.16,1.41.68,3.66.58c4.44.15,13.27-.47,17.24.86,13.69,3.32,11.71,20.24-2.32,20.59-2.27.24-4.68.36-7.22.36-1.98.18-7.56-1.01-6.48,2.71Zm6.48-3.49c11.29,0,16.94-2.56,16.94-7.69,0-2.44-1.41-4.22-4.23-5.34-2.82-1.13-7.06-1.69-12.7-1.69-2.12-.21-4.63.28-5.26,2.66-.62,3.17-3.16,8.45-1.27,11.29,1.09,1.31,5.05.61,6.53.77Z"/><path class="e" d="m35.87,21.06c-.3,12.56,19.24,15.62,23.74,4.37,4.81-7.64-10.01-21.61-1-25.18,10.12-1.44,4.13,11.18,3.16,16.52-1.07,6.21.03,13.03-3.43,18.15-6.23,9-21.4,5.41-22.55-5.89-.9-3.58-.33-8.2-1.19-12.26-.66-4.7-3.8-9.88-2.33-14.47,1.96-3.78,8.72-2.56,8.52,1.99-.39,5.52-4.89,11.11-4.93,16.77Z"/><path class="e" d="m72.01,15.19c-.71,2.77,2.45,2.86,4.37,2.71,4.08.09,6.88-3.35,10.96-3.27,3.64-.3,6.53,3.49,3.6,6.14-3.38,2.88-8.22-.17-11.65-1.61-6.56-1.49-9.46-.54-7,6.67,2.1,10.93,10.55,12.83,18.35,5.84,4.3-2.98,9.24,2.56,6.12,6.62-6.29,5.83-10.6-6.97-23,1.08-12.6,3.15-2.6-13.59-3.18-19.43.08-5.28-3.09-10.49-3.27-15.66.27-7.07,7.4-3.52,11.01-1.49,5.54,2.25,9.04-2.37,14-2.77,4.54-.2,5.77,6.56,1.99,8.52-3.76,1.86-6.38-2.09-9.35-3.71-7.99-3.21-11.7,3.28-12.95,10.35Z"/><path class="e" d="m104.78,22.39c.75,4.32,3.92,8.3,4.1,12.67.31,4.43-6.19,5.87-8,1.99-1.63-8.63,6.1-13.64,1.22-25.07-4.94-13.7,1.69-11.27,11.93-11.4,5.64,0,9.82.79,12.54,2.38,5.25,2.64,5.54,11.5.41,14.22-4.73,3.28-18.11-.55-5.01,6.28,5.01,2.52,14.83,11.73,7.11,16.19-5.84,1.35-4.76-3.92-6.17-7.75-1.87-3.86-6.43-12.59-11.1-12.84-2.46.01-7.8-.68-7.03,3.32Zm7.03-4.1c6.82-.41,16.35.55,16.94-5.65-.55-6.46-11.27-5.42-18.04-5.76-3.19,0-4.43,2.77-4.87,5.65-.27,1.8-1.36,3.45-.22,4.84.97,1.45,4.69.77,6.2.91Z"/><path class="e" d="m139.42,25.1c.79,3.93,4.75,7.86,3.13,11.95-1.38,3.02-6.2,3.02-7.58,0-1.64-5.62,3.19-11.33,2.85-17.1.1-5.16-3.11-10.06-3.27-15.11-.1-2.68,1.4-4.17,3.65-4.26,4.44.15,13.27-.47,17.24.86,13.69,3.32,11.71,20.24-2.32,20.59-2.27.24-4.68.36-7.22.36-1.98.18-7.56-1.01-6.48,2.71Zm6.48-3.49c11.29,0,16.94-2.56,16.94-7.69,0-2.44-1.41-4.22-4.23-5.34-2.82-1.13-7.06-1.69-12.7-1.69-2.12-.21-4.63.28-5.26,2.66-.62,3.17-3.16,8.45-1.27,11.29,1.09,1.31,5.05.61,6.53.77Z"/><path class="e" d="m171.08,15.19c-.72,2.77,2.45,2.86,4.37,2.71,4.08.09,6.88-3.35,10.96-3.27,3.64-.3,6.53,3.49,3.6,6.14-3.38,2.88-8.22-.17-11.65-1.61-6.56-1.49-9.46-.54-7,6.67,2.1,10.93,10.55,12.83,18.35,5.84,4.3-2.98,9.24,2.56,6.12,6.62-6.29,5.83-10.6-6.97-23,1.08-13.85,3.59-.2-17.01-3.68-23.52-1.37-5.3-6.85-18.48,3.77-15.33,2.56,1.29,4.6,2.91,7.8,2.77,4.34.34,6.55-3.25,10.68-3.27,3.11-.14,4.92,3.22,4.04,5.92-.62,2.91-4.49,3.9-6.75,2.27-3-2.41-6.3-5.24-10.54-3.85-4.98,1.11-5.88,6.48-7.06,10.82Z"/><path class="e" d="m203.85,22.39c.75,4.32,3.92,8.3,4.09,12.67.31,4.43-6.19,5.87-8,1.99-1.62-8.63,6.1-13.64,1.22-25.07-4.94-13.7,1.69-11.27,11.93-11.4,5.64,0,9.82.79,12.54,2.38,5.25,2.64,5.54,11.5.41,14.22-4.73,3.28-18.11-.55-5.01,6.28,5.01,2.52,14.83,11.73,7.11,16.19-5.84,1.35-4.76-3.93-6.17-7.75-1.87-3.86-6.43-12.59-11.1-12.84-2.46.01-7.8-.68-7.03,3.32Zm7.03-4.1c6.82-.41,16.35.54,16.94-5.65-.55-6.46-11.27-5.42-18.04-5.76-3.19,0-4.43,2.77-4.87,5.65-.27,1.8-1.36,3.45-.22,4.84.97,1.45,4.69.77,6.2.91Z"/><path class="e" d="m233.63,35.62c.26-5.22,4.15-10.31,4.1-15.66.05-5.35-3.84-10.44-4.1-15.66-.2-5.59,9.17-5.6,8.97,0-.49,6.56-5.99,12.92-3.46,19.76.94,4.4,4.59,9.12,3.02,13.56-1.96,3.78-8.73,2.56-8.52-1.99Z"/><path class="e" d="m244.81,19.95c-.87-26.61,32.98-26.6,32.1,0,.87,26.61-32.98,26.6-32.1,0Zm16.05,12.51c20.14-.14,20.13-24.88,0-25.02-20.14.14-20.13,24.88,0,25.02Z"/></g></g></svg>