<?xml version="1.0" encoding="UTF-8"?><svg id="b" xmlns="http://www.w3.org/2000/svg" width="60" height="60" viewBox="0 0 60 60"><defs><style>.e{fill:#e79858;}.e,.f{stroke-width:0px;}.f{fill:#9b1e1a;}</style></defs><g id="c"><g id="d"><path class="f" d="m60,30c0,8.39-3.45,15.98-9,21.43-.49.48-.99.94-1.51,1.39-.95.82-1.96,1.57-3.01,2.27-4.73,3.11-10.39,4.92-16.47,4.92s-11.74-1.81-16.47-4.92c-1.05-.69-2.06-1.45-3.01-2.27-.52-.44-1.03-.91-1.51-1.39C3.45,45.98,0,38.39,0,30,0,13.43,13.43,0,30,0s30,13.43,30,30Z"/><path class="e" d="m51,51.43c-.49.48-.99.94-1.51,1.39-.95.82-1.96,1.57-3.01,2.27-4.73,3.11-10.39,4.92-16.47,4.92s-11.74-1.81-16.47-4.92c-1.05-.69-2.06-1.45-3.01-2.27-.52-.44-1.03-.91-1.51-1.39,1.2-3.4,3.94-6.15,7.51-7.27l8.97-2.83v-1.48c-1.12-.66-2.13-1.42-2.96-1.99-1.54-1.04-2.57-2.67-2.88-4.5l-.48-2.86c-1.5,0-2.71-1.21-2.71-2.71v-6.32c0-3.74,1.52-7.12,3.96-9.58,2.46-2.45,5.83-3.96,9.58-3.96,7.47,0,13.54,6.07,13.54,13.54v6.32c0,1.5-1.21,2.71-2.71,2.71l-.48,2.86c-.31,1.83-1.34,3.47-2.89,4.5-.83.56-1.82,1.33-2.95,1.99v1.48l8.96,2.83c3.58,1.13,6.32,3.87,7.52,7.27Z"/></g></g></svg>