<?xml version="1.0" encoding="UTF-8"?><svg id="b" xmlns="http://www.w3.org/2000/svg" width="19.75" height="13.99" viewBox="0 0 19.75 13.99"><defs><style>.e{fill:#9b1e1a;stroke-width:0px;}</style></defs><g id="c"><path id="d" class="e" d="m2.93,13.99l-1.73-1.51c.37-.16.87-.48,1.5-.95.63-.47,1.2-1.04,1.72-1.69.51-.66.77-1.34.77-2.06-.14.16-.4.29-.78.38-.38.1-.75.14-1.12.14-.8,0-1.55-.31-2.24-.92-.7-.62-1.04-1.56-1.04-2.84,0-1.41.42-2.52,1.27-3.32.85-.81,1.89-1.21,3.12-1.21s2.32.44,3.16,1.32,1.26,2.18,1.26,3.89c0,1.47-.28,2.78-.84,3.94-.56,1.15-1.29,2.13-2.18,2.94-.9.81-1.85,1.44-2.86,1.91Zm10.92,0l-1.7-1.51c.37-.16.87-.48,1.5-.95.63-.47,1.2-1.04,1.72-1.69.51-.66.77-1.34.77-2.06-.14.16-.4.29-.78.38-.38.1-.76.14-1.14.14-.78,0-1.52-.31-2.22-.92-.7-.62-1.04-1.56-1.04-2.84,0-1.41.42-2.52,1.27-3.32.85-.81,1.89-1.21,3.12-1.21s2.32.44,3.16,1.32c.84.88,1.26,2.18,1.26,3.89,0,1.47-.28,2.78-.85,3.94-.57,1.15-1.3,2.13-2.18,2.94s-1.84,1.44-2.87,1.91Z"/></g></svg>