<?xml version="1.0" encoding="UTF-8"?><svg id="b" xmlns="http://www.w3.org/2000/svg" width="19.78" height="13.99" viewBox="0 0 19.78 13.99"><defs><style>.e{fill:#9b1e1a;stroke-width:0px;}</style></defs><g id="c"><path id="d" class="e" d="m4.42,13.99c-1.26,0-2.32-.44-3.16-1.32s-1.26-2.18-1.26-3.89c0-1.47.28-2.78.85-3.92.57-1.14,1.3-2.13,2.21-2.95.9-.82,1.85-1.46,2.84-1.91l1.73,1.51c-.37.16-.87.48-1.5.95-.63.47-1.2,1.04-1.72,1.69-.51.66-.77,1.34-.77,2.06.16-.18.42-.31.79-.4.37-.09.74-.13,1.1-.13.8,0,1.55.3,2.24.91.7.61,1.04,1.56,1.04,2.86,0,1.39-.42,2.5-1.27,3.31-.85.82-1.9,1.22-3.14,1.22Zm10.94,0c-1.26,0-2.32-.44-3.16-1.32-.84-.88-1.26-2.18-1.26-3.89,0-1.47.28-2.78.85-3.92.57-1.14,1.3-2.13,2.21-2.95.9-.82,1.85-1.46,2.84-1.91l1.73,1.51c-.37.16-.87.48-1.5.95-.63.47-1.2,1.04-1.72,1.69-.51.66-.77,1.34-.77,2.06.16-.18.42-.31.79-.4.37-.09.74-.13,1.1-.13.8,0,1.55.3,2.24.91.7.61,1.04,1.56,1.04,2.86,0,1.39-.42,2.5-1.27,3.31-.85.82-1.9,1.22-3.14,1.22Z"/></g></svg>