<?xml version="1.0" encoding="UTF-8"?><svg id="b" xmlns="http://www.w3.org/2000/svg" width="719.4" height="789.11" viewBox="0 0 719.4 789.11"><defs><style>.e{fill:none;stroke:#fff;stroke-linejoin:round;stroke-width:3px;}.f{opacity:.15;}</style></defs><g id="c"><g id="d"><g class="f"><path class="e" d="m478.73,227.21c0,124.67-106.83,225.73-238.61,225.73S1.5,351.88,1.5,227.21,108.33,1.5,240.12,1.5s238.61,101.05,238.61,225.71Z"/><path class="e" d="m292.22,215.67c0,28.92-26.07,52.37-58.24,52.37s-58.23-23.45-58.23-52.37,26.07-52.37,58.23-52.37,58.24,23.45,58.24,52.37Z"/></g><g class="f"><path class="e" d="m717.9,561.88c0,124.67-106.83,225.73-238.61,225.73s-238.62-101.06-238.62-225.73,106.83-225.71,238.62-225.71,238.61,101.05,238.61,225.71Z"/><path class="e" d="m531.39,550.34c0,28.92-26.07,52.37-58.24,52.37s-58.23-23.45-58.23-52.37,26.07-52.37,58.23-52.37,58.24,23.45,58.24,52.37Z"/></g></g></g></svg>