<?xml version="1.0" encoding="UTF-8"?><svg id="b" xmlns="http://www.w3.org/2000/svg" width="193.05" height="42" viewBox="0 0 193.05 42"><defs><style>.e{fill:#fff;stroke-width:0px;}</style></defs><g id="c"><g id="d"><path class="e" d="m0,.34S11.52.34,11.52.34c2.03,0,3.86.36,5.5,1.07,7.28,2.87,7.02,14.59,0,17.64-2.6,1.47-6.84,1.18-9.84,1.19v11.78H0V.34Zm7.18,14.23c3.32.12,7.55.07,7.54-4.32.05-4.38-4.27-4.35-7.54-4.25v8.57Z"/><path class="e" d="m31.78,21.43c0,1.57.3,2.82.89,3.76,1,1.89,5.01,1.86,5.99,0,.58-.94.88-2.19.88-3.76v-9.12h7.2v9.89c.18,6.44-4.72,10.61-11.09,10.39-6.36.22-11.23-3.96-11.04-10.39,0,0,0-9.89,0-9.89h7.18v9.12Z"/><path class="e" d="m56.29,23.71c.52,4.88,7.89,4.26,10.61,1.73l2.83,4.51c-3.38,3.21-10.68,3.36-14.88,1.42-5.32-2.33-6.81-9.68-4.18-14.62,2.57-5.13,10.19-6.2,15.01-3.84,4.02,1.95,5.24,6.36,4.86,10.8h-14.26Zm7.46-3.82c-.13-4.46-7.04-4.31-7.32,0h7.32Z"/><path class="e" d="m80.15,32.02h-7.3V12.31h7.3v3.05h-.12c1.54-3.69,7.34-4.66,10.51-2.4l-2.83,5.93c-1.91-2.1-6.12-1.62-7.12,1.25-.3.7-.44,1.37-.44,1.99v9.89Z"/><path class="e" d="m99.29,42h-7.22V12.31h7.3v2.88c2.22-3.69,8.56-4.51,11.99-2.04,2.9,1.99,4.27,5.45,4.26,9.02.02,3.61-1.51,7.06-4.48,9.01-3.57,2.5-9.83,1.62-11.84-2.36v13.18Zm9.19-19.82c-.01-6.24-9.1-6.21-9.12,0,0,6.19,9.12,6.22,9.12,0Z"/><path class="e" d="m124.99,23.71c.52,4.88,7.89,4.26,10.61,1.73l2.83,4.51c-3.38,3.21-10.68,3.36-14.88,1.42-5.32-2.33-6.81-9.68-4.18-14.62,2.57-5.13,10.19-6.2,15.01-3.84,4.02,1.95,5.24,6.36,4.86,10.8h-14.26Zm7.46-3.82c-.13-4.46-7.04-4.31-7.32,0h7.32Z"/><path class="e" d="m148.85,32.02h-7.3V12.31h7.3v3.05h-.12c1.54-3.69,7.34-4.66,10.51-2.4l-2.83,5.93c-1.91-2.1-6.12-1.62-7.12,1.25-.3.7-.44,1.37-.44,1.99v9.89Z"/><path class="e" d="m164.57,8.26c-5.48-.13-5.42-8.09,0-8.26,5.46.2,5.5,8.09,0,8.26Zm-3.74,23.76V12.31h7.3v19.7h-7.3Z"/><path class="e" d="m182.04,32.59c-8.57.27-13.89-8.38-9.68-15.76,3.86-6.76,15.45-6.84,19.26,0,4.08,7.33-.99,16.03-9.58,15.76Zm0-6c5.44.19,5.4-9.01,0-8.86-5.45-.14-5.5,9.04,0,8.86Z"/></g></g></svg>